<?xml version="1.0" encoding="utf-8"?>
<!-- Generator: Adobe Illustrator 27.7.0, SVG Export Plug-In . SVG Version: 6.00 Build 0)  -->
<svg version="1.1" xmlns="http://www.w3.org/2000/svg" xmlns:xlink="http://www.w3.org/1999/xlink" x="0px" y="0px"
	 viewBox="0 0 600 633" style="enable-background:new 0 0 600 633;" xml:space="preserve">
<style type="text/css">
	.st0{fill:#FFFFFF;}
	.st1{fill:none;}
	.st2{fill:#E8E5D8;}
	.st3{fill:#D9D9D9;fill-opacity:0.6;}
	.st4{fill:#D5E6B3;}
	.st5{fill:#C1D29F;}
	.st6{fill:none;stroke:#94C1E1;}
	.st7{fill:#94C1E1;}
	.st8{fill:none;stroke:#FFFFFF;stroke-width:1.524;stroke-linejoin:bevel;stroke-dasharray:1.332,1.332;}
	.st9{fill:none;stroke:#FFFFFF;stroke-width:4.1374;stroke-linecap:round;stroke-linejoin:round;}
	.st10{fill:none;stroke:#FFFFFF;stroke-width:4.4666;stroke-linecap:round;stroke-linejoin:round;}
	.st11{fill:none;stroke:#FFFFFF;stroke-width:6.5008;stroke-linecap:round;stroke-linejoin:round;}
	.st12{fill:#DED3BE;stroke:#CFC4AF;stroke-width:0.7;}
	.st13{font-family:'ArialMT';}
	.st14{font-size:10px;}
	.st15{fill:none;stroke:#FFFFFF;stroke-width:2;stroke-linecap:round;stroke-linejoin:round;}
	.st16{fill:#908B78;}
	.st17{fill:#009076;}
	.st18{fill:#FFFFFF;fill-opacity:0.75;}
	.st19{fill:none;stroke:#333333;stroke-width:2;}
	.st20{fill:#333333;}
	.st21{stroke:#000000;}
	.st22{font-size:12px;}
	.st23{fill:#FFFFFF;fill-opacity:0.73;}
	.st24{font-size:11px;}
	.st25{fill:#888888;}
	.st26{font-size:14px;}
</style>
<g id="exportSvg">
	<rect class="st0" width="600" height="633"/>
	<rect class="st1" width="600" height="600"/>
	<rect class="st1" width="600" height="600"/>
	<rect id="background" class="st2" width="600" height="600"/>
	<path id="landuse_residential" class="st3" d="M640.7-127l43.3,24.6l123.1,68.2l1,2.9L739.6,92.7l-3.2,1L623.6,31L570.3,0.7
		l-1.6-2.9l68.8-124.1L640.7-127z"/>
	<path id="landcover_grass" class="st4" d="M62.1,92.7v113.4H-0.3L62.1,92.7z M596.8,6.5l2.9,1.6l2.3,8.7l6.8-1.9l-0.6-1.9l6.5-1.6
		l-2.9,4.2l1,0.3l-3.9,6.8L588.1,11l2.6-4.5l4.8,2.6L596.8,6.5z M125.4,177.1l6.8,1l5.2,1.6l2.9,1.6l3.2,3.2l2.3,4.5l1.3,5.2
		l0.6,4.8v3.6l-1,3.6H61.4l0.3-3.9l1.3-3.9l1.6-3.9l2.3-2.9l1-1l4.8-2.3l8.1-2.9l9-2.9l8.4-2.3l9.7-1.9l7.8-1L125.4,177.1z
		 M176.1-64l2.6,0.6l153.8,85l146,81.1L578.7,159l76.6,42.3l0.6,1.6v1l-1,2.3H20.7V168l75-136.7l20-33l28.1-50.7l1.6-1.3l1.9-0.6
		l9.7-1.6l9.4-3.2l2.9-1.6l4.5-2.9L176.1-64z M46.6,187.4l2.3,1.6l1.3,1.6l0.6,1.9v4.2l-0.3,1.6l-1,2.3l-1.9,3.6l-1.6,1.9l-1.9,1.3
		l-2.6,0.3l-1.9-0.3l-1.6-1l-1.6-1.6l-0.3-2.9l0.6-5.5l1-2.9l2.3-2.9l2.9-1.9l2.9-1.3H46.6z M62.1,164.8v1152.8L5.9,1419.3l-30,56.2
		l-4.5,6.1l-21.3,37.2l-4.5,6.5l3.9,4.2h-681.4l69.1-124.1l9-17.8l2.3-2.9l58.5-106.9l14.2-24.2l14.2-25.5l46.2-85l1.9-4.8l6.8-10.3
		L-399,925.7l69.5-124.7l91.1-166.7l5.5-9l31.7-58.5l82.1-144.4l75.9-137.6l65.6-119.9H62.1z M10.4,473l4.5,0.3l3.6,0.3l7.4,2.3
		l16.2,5.8l20,6.1v119.5l-1.3,0.6l-3.6,1.9l-15.5,2.9l-4.2,1l-3.2,8.1l-4.8,8.7l-7.4,9.4l-3.6,3.2l-4.8,3.9L8.1,651L3,653.6
		l-7.1,2.6l-7.8,1.9l-1.6-8.1l-1.6-5.5l-4.8-13.2l-3.9-9.4l-3.2-5.8l-2.6-5.2l-6.5-10l-1.3-2.6l-5.2-12.6l-1-2.6l-1.3-7.4l-1-6.8
		l0.3-3.6l0.3-4.8l1.6-11l0.3-7.8l-0.3-10.7l1-6.8l0.6-3.9l1.6-3.6l4.2-8.7l3.6-6.5l5.2-7.1l5.5-6.1l6.5-5.2l5.2-2.9L2,474.6l3.6-1
		L10.4,473z M125.4,177.1l6.8,1l5.2,1.6l2.9,1.6l3.2,3.2l2.3,4.5l1.3,5.2l0.6,4.8v3.6l-1.3,5.5l-1.3,3.2l-1.9,4.2L139,221l-3.9,3.6
		l-3.2,2.9l-3.6,1.9l-4.8,2.9l-6.8,2.9l-9,2.3l-9,1l-7.8-0.3l-4.8-1l-4.8-1.3l-5.8-2.6l-5.2-4.2l-2.6-2.9l-2.9-3.9l-1.6-3.6l-1-2.3
		l-0.6-2.3v-4.5l0.3-7.4l1.3-3.9l1.6-3.9l2.3-2.9l1-1l4.8-2.3l8.1-2.9l9-2.9l8.4-2.3l9.7-1.9l7.8-1L125.4,177.1z M46.6,187.4
		l2.3,1.6l1.3,1.6l0.6,1.9v4.2l-0.3,1.6l-1,2.3l-1.9,3.6l-1.6,1.9l-1.9,1.3l-2.6,0.3l-1.9-0.3l-1.6-1l-1.6-1.6l-0.3-2.9l0.6-5.5
		l1-2.9l2.3-2.9l2.9-1.9l2.9-1.3H46.6z M589.4,164.8l65.9,36.5l0.6,1.6v1l-1.6,4.2l-1,4.5v3.6l1.9,5.2l1.6,2.6l2.3,2.3l3.9,2.3
		l1.3,1.6l0.6,1.9l-42,75.9l-30.4,55.9l-27.5,48.8l-25.5,45.6l-8.7,17.1l-24.2,44.3l-49.1,88.2l-5.2,10.3l-23.3,42.3L322.2,846.8
		l-34.9,64.6l-102.1,186.4L121.5,1209l-15.5,29.1l-85.3,154.4V167.7l1.6-2.9H589.4z M521.5,389.7l19.1,3.6l3.6,1l16.5,7.4L492.4,525
		l-7.8,3.6l-8.4,1.3l-6.1,0.3l-4.5-1l-8.1-5.8l-4.8-5.2l-2.9-7.4v-10.7l7.8-16.5l-0.6-7.8l-2.3-4.8l-5.8-2.6l-1.9-4.5l6.1-11.3
		l-3.2-2.6l-1.3-6.5l3.2-8.1l3.6-7.1l6.5-2.3h4.8l9-15.2l6.5,3.6l8.1,0.3l5.5-2.3l3.9-5.2l3.2-8.1l10-7.4L521.5,389.7z M467.6,430.7
		l4.2,0.3l-1,2.3h-2.9l-3.6,0.6l-2.6,1.9l-1.9,2.6l-1.3,3.2v3.2l1,3.2l1.6,2.6l-1,1.9l-2.6-3.2l-1.3-3.9l-0.3-2.3l0.3-1.9l1.3-3.9
		l2.6-3.2l3.6-2.3L467.6,430.7z M480.2,437.5l41,22.3l-10.7,19.4l-40.7-22.3l1.3-2.9h2.9l1.6,2.9l-0.3,0.3l-1.3-1l-0.6-1.6l-1.6,0.3
		l-0.6,1.6l5.2,2.6l1.6-2.3l-1.6-1.6l-1.3-3.6l1.6-1l1.3-1.9l0.6-1.9v-1.9l1.9-0.6l3.9-0.3l1.6-2.3l-5.2-2.9l-1.3,1.3l0.6,1.6h2.9
		v0.3l-0.3,0.6h-2.9l-1-2.3L480.2,437.5z M497.3,445.2l6.8,3.6l-0.6,1.3l-6.8-3.6L497.3,445.2z M471.8,431l4.2,2.6l-2.9,5.2h-2.9
		l-1.9,1l-1.6,1.3l-1.3,2.3l-0.3,2.3l0.3,1.9l1.6,2.6l-2.9,4.8l-3.9-2.3l1-1.9l-1.6-2.6l-1-3.2v-3.2l1.3-3.2l1.9-2.6l2.6-1.9
		l3.6-0.6h2.9L471.8,431z M515.1,454.9l8.4,4.5l-12.3,22.3l-8.4-4.8l1-1.6l6.8,3.9l10.7-19.4l-7.1-3.6L515.1,454.9z M486,465.9
		l6.8,3.6l-1,1.6l-6.5-3.9L486,465.9z M475,451.7l1.3,3.6l1.6,1.6l-1.6,2.3l-5.2-2.6l0.6-1.6l1.6-0.3l0.6,1.6l1.3,1l0.3-0.3L474,454
		h-2.9l-1.3,2.9l14.9,8.1l-1,1.6l-16.5-9l2.9-5.2h2.3L475,451.7z M495.3,471.1l6.5,3.2l-1,1.6l-6.1-3.6L495.3,471.1z M479.5,435.2
		l16.5,9l-1,1.3l-14.9-8.1l-1.3,2.9l1,2.3h2.9l0.3-0.6v-0.3h-2.9l-0.6-1.6l1.3-1.3l5.2,2.9l-1.6,2.3l-3.9,0.3l-1.9,0.6l-0.6-2.6
		l-1.3-1.9L479.5,435.2z M506.7,450.4l6.5,3.6l-0.6,1.3l-6.5-3.6L506.7,450.4z M464.7,512.1l1.6,2.3l2.9,2.3l1.9,0.6l3.6,0.6
		l-0.3,2.9l-4.2-0.6l-2.3-1l-3.6-2.9l-2.3-2.6L464.7,512.1z M472.4,488.8l13.6,7.4l-1.3,2.3l-11.3-6.5l-3.2,5.8l-2.3-1.3
		L472.4,488.8z M474.3,495.6l3.2,1.6l-1.3,2.3l-1-0.6l-2.9,5.2l-0.3,1.9l1.3,1.6l0.6,0.6h2.3l1.6-1.3l2.9-4.8l-1.3-0.6l1.3-2.3
		l3.2,1.9l-4.2,7.4l-1.3,1.6l-1.3,0.6h-2.6l-1.3-0.3l-1.9-1l-1.3-2.3l-0.3-2.3l1-2.9L474.3,495.6z M470.5,482.1l17.8,9.7l-1.3,2.6
		l-15.5-8.4l-5.5,9.7l-2.6-1.3L470.5,482.1z M491.1,493.4l6.5,3.9l-6.8,12.3l-2.6-1.3l5.5-10l-3.9-2.3L491.1,493.4z M488.6,497.9
		l2.3,1.3l-4.5,7.8l-1.9-1L488.6,497.9z M486.6,510.8l2.6,1.6l-2.3,3.6l-1.9,1.6l-2.3,1.6l-2.9,1.3l-3.6,0.3v-2.9l2.6-0.3l2.6-0.6
		l1.6-1.3l1.6-1.6L486.6,510.8z M466.3,499.5l2.3,1.3l-1,2.3l-0.3,1.6l0.3,1.6l0.3,1.9l-2.3,1.3l-0.6-2.9v-3.9L466.3,499.5z
		 M461.7,497.2l2.6,1.3l-1.3,3.6l-0.3,2.3v2.6l0.6,2.6l0.3,1l-2.3,1.6l-1-1.6l-0.6-3.2v-2.9l0.3-2.9l0.6-2.3L461.7,497.2z
		 M482.7,508.9l1.9,1l-1.6,2.9l-1.3,1.3l-1.3,1l-1.9,0.6l-2.3,0.3l0.3-2.6l1.3-0.3l2.3-1L482.7,508.9z M468.5,509.9l1,1.3l1.6,1.3
		l3.6,1v2.3l-2.9-0.3l-1.6-0.6l-2.3-1.6l-1.3-1.9L468.5,509.9z M528,421.3l2.3,1l-2.6,2.9l-1.9,1.3l-1.3,0.6l-2.6,0.3l-1.9-0.6
		l1.3-2.6l1,0.3h1l2.3-1.3l0.3,0.3l1-0.6L528,421.3z M515.7,414.5l2.3,1.3l-1,2.3v1h0.3l0.6,2.9l1,1.3l-1.3,2.6l-1.6-1.6l-0.6-1.3
		l-0.6-2.6v-2.9L515.7,414.5z M519.9,403.2l1,2.9l-1.6,0.6l-1.6,1.3l-2.3,2.6l-1,1.9l-1.9,5.2v2.9l-2.6,1.3l-0.3-3.2v-1.3l0.6-2.3
		l1.6-3.9l1-1.9l2.9-3.6l2.3-1.6L519.9,403.2z M529.6,409l1.3,1l1.3,2.6l0.3,1.3v1.9l-0.3,2.3l-1,2.3l-2.3-1.3l1.3-3.2h-0.3
		l-0.3-2.3l-1.3-2.3L529.6,409z M524.4,407.1l2.9,0.6l-1.3,2.6l-1.9-0.3l-1,0.3l-1.3,0.6l-0.3-0.3l-1.3,1.6l-1,1.3l-2.3-1.3l1.9-2.6
		l1.6-1.3l1.6-0.6L524.4,407.1z M526,402.3l2.6,0.6l2.3,1l1.9,1.3l1.9,1.6l1.9,3.6l-2.6,1l-1.6-2.6l-1.3-1.3l-1.6-1.3l-1.6-0.6
		l-2.3-0.3h-2.6l-0.6-2.6L526,402.3z M537.3,412.9l0.3,3.2l-0.3,1.9l-1.3,3.2l-1.6,3.6l-2.3,2.9l-1.3,1.3l-3.6,2.3l-0.3-2.9l2.3-1.6
		l1-1l1.9-2.6l2.6-5.8v-3.2L537.3,412.9z M513.1,423.3l1.3,2.3l2.9,2.9l1.9,0.6l2.6,0.6l2.6-0.6l0.3,2.9l-3.2,0.3l-3.2-0.6l-2.3-1
		l-1.9-1.3l-1.9-2.3l-1.6-2.6L513.1,423.3z M510.5,424.6l1.6,2.6l1.9,2.3l1.9,1.3l2.3,1l3.2,0.6l3.2-0.3l0.3,1.9l-3.6,0.3l-3.6-0.6
		l-2.9-1.3l-2.3-1.6l-2.3-2.3l-1.6-3.2L510.5,424.6z M539,412.3l0.6,4.2l-0.3,1.9l-1.3,3.9l-1.9,3.6l-2.6,3.2l-2.6,2.3l-3.2,1.6
		l-0.3-1.6l3.6-2.3l1.3-1.3l2.3-2.9l1.6-3.6l1.3-3.2l0.3-1.9l-0.3-3.2L539,412.3z M519.6,401.3l0.3,1.9l-1.9,1l-2.3,1.6l-2.9,3.6
		l-1,1.9l-1.6,3.9l-0.6,2.3l0.3,4.5l-1.6,0.6l-0.6-3.9l0.3-1.6l0.6-2.6l1.6-3.9l1.3-2.3l2.9-3.9L519.6,401.3z M526,400.3l3.2,0.6
		l2.6,1.3l2.3,1.3l2.3,2.3l1.9,3.9l-1.6,0.6l-1.9-3.6l-1.9-1.6l-1.9-1.3l-2.3-1l-2.6-0.6l-3.6,0.3l-0.3-1.9L526,400.3z M20.7,474.3
		l5.2,1.6l16.2,5.8l25.8,8.1l22.3,4.8l6.5,0.6l10.3,0.3l17.1-1.9h6.5l12,1.3l6.8,1.6l15.8,6.1l8.1,4.8l3.6,1.9l4.2,0.6h5.5l3.9,0.6
		l12.6,20.7l2.6-1.6l1-4.2l11-7.1l4.2-3.6l3.9-3.6l6.8-7.8l2.9-2.6l4.5-3.6l5.8-2.9l5.8-1.6l5.5-1l6.5-0.3h5.2l9,0.6l14.2,1.3v3.2
		h12l2.9,3.2v11.6l3.2,0.3l0.3,16.8v4.5l-0.6,5.8l-1.9,9l-1,5.2l-2.6,7.1l-3.6,6.8l-5.2,9l-2.6,5.5l-1.6,5.5l-2.6,8.4L287,600
		l-3.2,5.2l-9.4,9.4l-7.4,5.8l-8.4,4.5l-4.2,1.6l-2.9,1.3l-2.6,2.3l-2.6,2.6l-2.6,3.9l-2.6,4.5l-6.1,12.3l-5.8,9.4l-3.6,5.5
		l-5.8,8.1l-5.5,6.5l-9.7,10.3l-2.6,2.9l-4.5,6.5l-5.2-3.2l-2.9-1l-2.9-0.6l-4.2,1.6l-17.8,5.8l-6.1,2.6l-5.5,5.2l-7.4,8.7l-3.2,1.6
		l-3.9-2.3l-2.9-1.6l-2.9-2.6l-1.9-1.9l-1.3-1.9l-1.9-4.8l-1-4.8l0.3-3.9l0.3-2.3l2.3-10.3l1.9-6.1l3.9-10.7l4.2-8.7l1.6-5.5
		l1.9-8.7l1.3-17.1l1-4.8l1.6-5.5l2.6-6.5l3.9-7.8l3.2-6.8l1.6-5.2l1-6.5l-0.6-5.2l-1-3.6l-1.6-4.2l-1.6-3.6l-3.9-5.2l-5.8-5.8
		l-8.7,9.4l-5.5,5.8l-4.5,3.6l-3.2,1.9l-2.9,1l-3.2,2.3l-2.3,0.6l-5.2,2.9l-15.8,5.8l-5.8,4.2l-5.2,2.9l-7.8,3.2l-13.6,5.2l-3.6,1.9
		l-15.5,2.9l-4.2,1l-3.2,8.1l-4.8,8.7l-7.4,9.4l-1.3,1.3V474.3z"/>
	<path id="landcover_wood" class="st5" d="M177.1,0l7.8,1l19.7,8.1l6.1,1.6l4.8,1l21.6,2.3l9.7,1.3l7.4,1.3l32.3,8.4l8.4,2.3
		l4.5,1.9l6.1,3.6l14.9,9.7L336.7,54l11,9.7L359,75.3l9.7,11.6l3.9,5.5l4.5,9l1.6,5.5l0.3,5.5v7.4l-0.6,3.9l-1,5.5l-3.6,15.8
		l-4.2,11.3l-12.9,26.5l-3.9,7.4l-10,15.8H231.7l-1-2.6l-4.5-9l-1.9-5.2l-1.6-7.1l-1-4.5l-0.3-7.4v-5.5l1.3-12.6v-6.1l-0.6-5.8
		l-2.6-7.1l-4.8-10l-4.2-5.2l-4.5-4.8l-5.8-4.5l-9-4.8L159.3,94l-3.9-1.3l-6.5-3.9l-3.2-2.9l-2.9-2.3l-2.9-3.6l-3.2-5.2l-2.6-6.5
		l-1.3-4.8l-0.3-4.2l-0.3-4.5l0.6-6.8l1-4.8l1.6-5.8l3.2-7.4l2.6-5.2l2.9-4.5l8.7-9.7l4.5-3.9l3.9-2.3l3.9-1.9l4.2-1.6l4.5-0.6
		L177.1,0z M257.9,38.1L242,39.8l-0.3,10l10.7,10.3l6.8,2.9h7.1v7.4h-7.1l-1.3,1.3l1.9,4.5l10,2.6l10,3.9l6.1-15.2l-6.1-12.3
		l-8.4-1.6L257.9,38.1z M526.4,394.8l2.6,0.3l4.2,1.3l-1.9,3.2l-2.9-1l-4.5-0.3l-3.6,0.6l-2.3,0.6l-4.2,2.9l-3.2,3.6l-1,0.6
		l-1.9-0.6l-0.6-1.6v-0.6l0.6-0.6h0.6l2.6-2.9l1.3-1.3l4.2-2.6l2.3-0.6l4.2-1H526.4z M228.2,269.8l64.3,4.8l-0.3,7.4v6.1l0.6,5.2
		l1.3,3.6l4.8,9.4l3.9,4.2l5.2,4.2l4.2,1.9l8.1,3.2l4.2,1.3l5.5,0.3l4.8-0.3l7.1-1.3l2.6-1.3l5.5-2.9l3.6-2.6l3.2-2.6l8.4-7.8
		l4.8-4.2l3.6-2.6l5.5-3.6l5.8-3.2l2.9-1.3l6.5-1.9l6.8-1h7.4l4.2,0.6l4.2,1.3l1.6,0.6l4.2,2.3l4.2,3.6l4.2,5.2l2.9,5.8l1.6,4.8
		l0.3,2.6v5.2l-0.6,3.6l-1,4.5l-2.6,5.5l-2.3,3.6l-1.3,1.3l-4.2,3.9l-2.3,1.3l-5.8,3.2l-2.6,1l-11.6,5.8l-5.8,3.6l-11,7.1l-6.1,5.2
		l-8.1,7.8l-6.8,7.8l-2.9,3.6l-8.1,12l-1.9,2.6l-2.3,2.3l-2.9,1.3h-4.8l-4.2-1l-10-2.9l-8.7-1.6l-12.6-1l-5.5,0.3l-6.8,1L286,401
		l-3.9,1.9l-7.1,4.5l-30,25.8l-9,7.1l-11,7.8l-9.7,6.1l-5.8,3.2l-8.4,3.2l-7.8,2.6l-11.3,1.6h-5.5l-8.1-0.6l-9.7-2.9l-10.7-3.9
		l-12.9-6.1l-2.9-1.6l-4.5-3.2l-16.5-13.9l-24.9-24.6l-1-1.3l-0.3-1v-1l2.3-4.5l1.3-3.2l6.8-19.7l2.6-7.8l2.3-4.5l3.6-5.2l2.3-3.2
		l5.2-5.8l4.5-4.2l5.2-3.9l2.9-1.6l7.1-3.9l33-11l6.5-2.9l6.1-2.9l10-6.1l10.3-7.8l5.5-4.8l8.4-8.4l3.2-3.9L228.2,269.8z
		 M464.7,458.5l45.6,25.5l-2.6,5.5L461.7,464L464.7,458.5z M504.4,409l3.2,1.3l-1.9,5.5l-0.3,3.6l-1-0.3v3.6l1,3.6l1.6,2.6l1-0.6
		l2.6,3.6l3.2,2.3l3.2,1.6l2.9,1h2.6l0.3,1l3.2-0.3l3.9-1.3l1.6-1l-0.3-1l3.2-2.6l2.6-2.9l1-1.6l1.9,1.3l-0.6,1l0.6,0.3l-15.2,27.8
		l-43.9-24.6l6.1-12h4.8l3.9-1.6l2.9-1.6l2.9-2.9L504.4,409z M536.1,398.1l2.9,2.3l2.6,3.2l1.3,1.9l1.3,2.6l0.6,2.9l0.3,2.6v4.2
		l-0.6,2.6l-1,2.9l-0.6,1h-1.6l-0.6-0.6l-0.3-0.6l1-3.9l0.3-2.9v-2.6l-0.6-2.9l-1-2.6l-2.3-4.2l-3.2-2.6L536.1,398.1z M462.4,466.9
		l30.4,16.8l-3.9,7.1l-19.1-10.7l-7.8,13.6l-2.9-1.9l2.6-4.2l0.6-3.6l0.3-3.2l-0.6-4.8l-0.6-2.3l-1.6-2.6L462.4,466.9z M460.8,514.4
		l2.3,2.9l1.9,1.6l2.3,1.6l2.6,1l4.5,0.6v3.6h-2.6l-2.9-1l-3.2-1l-2.9-1.9l-2.3-1.9l-2.9-3.9L460.8,514.4z M495.7,485.3l11,6.1
		L495,512.1l-2.9-1.9l7.4-13.6l-7.8-4.5L495.7,485.3z M457.5,494.7l3.2,1.9l-1.3,2.3l-0.6,2.3l-0.3,2.9v3.2l0.6,3.6l1,1.9l-3.2,1.6
		l-1-2.3l-1-4.2V504l0.3-3.6l1-2.9L457.5,494.7z M490.5,513.1l3.2,1.6l-2.9,4.5l-2.6,2.3l-3.2,2.3l-4.2,1.6L476,526l0.3-3.6l3.9-0.6
		l3.2-1.3l2.6-1.6l1.9-2.3L490.5,513.1z M365.5,164.8l-8.7,18.1l-3.9,7.4l-11.6,18.1l-28.4,33.9l-13.9,17.4l-3.6,6.5l-1.6,4.2
		l-1.3,4.2l-64.3-4.8l3.6-5.8l3.6-9.4l1.6-8.7l1-7.1l-0.3-7.4l-0.3-6.5l-2.9-11.3l-3.6-10l-4.5-9l-1.9-5.2l-1.6-7.1l-1-4.5l-0.3-7.4
		v-5.5H365.5z"/>
	<path id="waterway" class="st6" d="M155.8,459.8l1.3-2.6l6.5-28.1l1-2.6l1.6-0.6l0.3-2.3l1.6-2.6l1.3-1l1.3-1.6l0.6-2.3l0.3-2.9
		l1-1.9l0.6-1.6l5.8-4.8v-1.3l-0.3-1.6l-1-1.3l-2.6-7.1 M60.1,375.1l4.5-0.3l4.2,1L75,380l6.5,2.6l14.5,1.3l6.5,1.9l4.8,1.3l5.5,2.3
		l10.3,1.9l6.8-1.9l13.2-1.9l3.6-1.3h2.3l11.6,7.1l5.2,0.6l9.4-0.3l46.2-31.7l6.5-1l2.3-1l2.3-1.9l4.8-3.6l1.6-1.9l0.3-1.6l0.6-1
		l1.9-1.6l0.6-1.6l0.6-3.6l4.5-5.2l0.6-1.6l0.6-3.9l1-1.6l1.3-0.6l7.4-0.3l7.8-0.6l6.1-5.2l2.3-1l2.6-3.9l6.1-12.9l5.8-7.1l3.2-2.9
		l13.9-5.8l6.5-9 M149.3,472.7l6.5-12.9"/>
	<path id="water" class="st7" d="M590.3,206.1v-0.3h1.6l3.6,0.3H590.3z M438.8,206.1l1-1.3l0.3-4.8l-1-3.9l-1.9-2.9l-0.6-0.6l-1-0.3
		l-4.2,0.6l-4.2,1.3l-3.2,1.3l-4.2,2.6l-0.6,0.6l-0.3,2.6l-1.6,2.3l-0.6,1.9v0.6h-30l-2.6-2.6l-0.6-1.6l1.9-5.2l0.6-6.8l-0.3-0.3
		l0.3-2.6l-0.6-1.6v-1.6l1.9-4.5l0.3-1.6l1-1.6l1-4.8l1.3-1.9l1.6-1.3l2.3-3.9l5.2-7.8l0.6-0.6l4.8-1l1-0.6l5.2-4.8l4.8-3.6l1-0.3
		l2.3-0.3l6.1-2.6h3.2l1.6-1.3l1-1.3l4.8-0.3l7.1,1h3.9l6.8,2.3l1.3,1l1.9,2.3l1.6,1l2.9,0.3l1.3,0.6l1.6,1.9l2.3,0.3l4.8,2.9
		l3.9,1.3l5.2,0.6l2.9,2.9l1.3,0.3h6.1l6.1,1l3.9-0.3l0.3-0.3l5.8,3.9l15.2,10.7l4.8,3.9l12.3,10l1.9,0.3l4.8-1l4.2,0.6l-0.6,1.9
		l-2.3-0.6l-1.6,6.5l2.6,0.6l-1.3,6.1l8.4,1.9v-1l5.8,1h2.3l1.6,2.6h-57.5l-3.9-4.2l-2.9-2.3l-3.9-1l-6.1-0.3l-3.9,0.3l-4.8,0.6
		l-5.2,1l-5.5,1.6l-6.1,2.9l-2.3,1.3H438.8z M510.5,164.8l12,8.4l4.8,3.9l12.3,10l1.9,0.3l4.8-1l4.2,0.6l-0.6,1.9l-2.3-0.6l-1.6,6.5
		l2.6,0.6l-1.3,6.1l8.4,1.9v-1l5.8,1h2.3l1.6,2.6l1.9,2.3l1.9,1.3l4.5,1.6l3.9,0.3l2.6-0.6l3.9-1.6l4.5-2.6l1.6-0.3v-0.6h1.6
		l3.6,0.3l2.9,1.3l2.9,2.3l0.6,2.3l1.6,1.3l2.3,0.6h5.2l2.3-0.6l1.6-1.3l2.3-0.3l1-0.3l7.1,1l4.8,3.2l1.3,1.6l1.3,2.3l1.3,3.9
		l1.9,10.7l1,1.3l-0.6,4.2l-1.3,4.5l-1.6,4.2l-2.3,1l-1.6,1.6l-1,2.6l-1.6,1.9l-1.3,2.6l-1.3,1.6l-2.3,3.2l-10.3,14.5l-3.9,7.1
		l-1.3,1.6l-3.2,3.2l-11.3,7.1l-2.6,2.9l-2.9,3.6l-1.3,2.6v1.9l-1,2.3l-0.3,10.3l-1.9,5.8l-0.3,2.9l0.6,1.6l-0.3,1.3l0.3,1.9
		l-0.6,1.6L580,337v1l-0.6,1l-1.3,2.6l-2.3,2.3l-1.3,0.6l-3.9,3.9l-5.2,2.6l-3.6,2.6l-3.9,4.2l-4.8,5.8l-0.3,0.6v1.9l-0.3,1.6
		l-1.3,1.6l-1.9,4.2l-1,6.5v2.6l-1,3.9l-1.6,0.6l-2.6-0.6l-2.6-0.3h-2.9l-1,0.3v0.3h-0.3l-3.9-0.6l-2.9,0.3l-2.3,1H527l-0.6-0.6
		l-1.3-2.3l-0.3-3.2l-0.6-1l1-0.3l1.3-3.9l2.6-4.2l1.6-0.3l0.6-0.3l-0.3-1.6l2.3-1l0.6-0.6l0.3-0.6v-0.6l2.3-1.3l3.9-3.2l2.9-4.2
		l2.6-6.1l2.6-9l1-7.8v-4.5l-0.3-4.2l-1-3.9l-1.3-3.9l-2.9-4.8l0.3-1.3l-0.6-1l-1-1.3l-3.9-3.2l-3.9-2.3l-3.2,0.3l-3.2,1.3h-1.6
		l-1,0.6l-1.6-1l-0.6-1.6l-0.3-1.6l0.3-1.3l5.5-8.1l1.9-4.8l0.6-3.6l0.6-5.8l0.3-3.2l-1.3-7.4l-1-4.2l-1.3-2.9l1.3-1.6v-1.6
		l-1.6-4.8l-1-1.3l-1-1.6l-2.3-1l-2.9-1.6l-1.6-0.3l-5.8,0.6l-1.6,1l-1,1l-3.9,0.6l-1.6,0.3l-1.9-0.6l-1.6-1.3l-1.6-1.9l-1-1.3
		l-0.3-2.9v-0.6l1-1.9l2.3-2.3l5.5-4.8l1.9-2.3l2.3-4.8l0.6-3.2l0.3-1.9l-0.3-5.2l-1.3-4.2l-1-1.9l-2.3-2.9l-4.5-4.8l-2.9-2.3
		l-3.9-1l-6.1-0.3l-3.9,0.3l-4.8,0.6l-5.2,1l-5.5,1.6l-6.1,2.9l-7.8,4.5l-5.2,3.6l-4.2,2.6l-7.1,2.9l-4.5,1.3l-5.2,1l-12.9,1.6
		l-6.1,0.6H410l-3.2-0.3l-2.3-0.3l-3.2-1.9l-7.1-7.1l-9-8.4l-1.3-1.3l-0.6-1.6l1.9-5.2l0.6-6.8l-0.3-0.3l0.3-2.6l-0.6-1.6v-1.6
		l1.9-4.5l0.3-1.6l1-1.6l1-4.8l1.3-1.9l1.6-1.3l1.9-3.2H510.5z M435.6,192.3l-4.2,0.6l-4.2,1.3l-3.2,1.3l-4.2,2.6l-0.6,0.6l-0.3,2.6
		l-1.6,2.3l-0.6,1.9l0.6,4.2l0.3,1l1,0.6l4.2,1h0.6l3.6-1.3l5.8-1l3.2-1.6l2.9-2.3l1-1.3l0.3-4.8l-1-3.9l-1.9-2.9l-0.6-0.6
		L435.6,192.3z M-56.2,356.1l0.6,1.6l1,0.6h0.3l1-1.3h0.3l1,0.3l0.6,0.6l1,2.9l3.6,3.6l2.9,3.6l3.6,5.8l1.3,1.3l2.9,1.3l1-0.6
		l7.1-2.3l2.6-0.3l0.6-1l1.6-1h1.3l2.9-0.6V370l-1-1v-0.3l4.5-2.9l1.3-0.6l1.9-0.3l1.3-0.6l1.3-1h7.4l7.1,2.3l0.6,0.6l1.3-0.3h1.3
		l5.8-2.3h4.2l1,0.6l0.6,0.6h0.3v-0.3l1,0.3l0.3,0.6l3.6,1l1,0.6l9.7,0.6l3.9,1l0.6,1l1.6,2.6l-0.6,2.3l0.6,0.3l0.6-0.3l0.6-1h0.3
		l6.1,2.6l1.3-0.3l0.6,0.6l1-0.3v0.3l3.2-1l1.3-1l2.9-0.3l0.6,1.6h-1.3l0.3,1l-0.3,0.3l-1.9,0.3l-1,1l-0.3,3.2l0.6,2.9l-0.3,1.6
		l-0.6,0.3l0.3,1.6l-0.3,0.6l-1.9,1.3l-1.9,1l-2.9,1h-6.1l-8.7,0.3l-3.6,1.3l-5.2,3.2l-2.3,1h-1l-2.3-0.3l-1.9,0.3h-1.6l-1.9-0.3
		l-1.3,0.3l-3.2,2.6l-2.6,2.6H5.9l-0.6-0.3l-1-1.9l-1-4.8l0.3-3.6l-0.3-0.3l-1.9-0.3L0.7,391l-2.3-0.6l-1,0.3h-0.3l-0.6,4.2
		l-1.3,1.3l-1.6,1.3l-2.9,1.9l-3.9,1.3l-5.8,1.6l-4.8,1.6l-1.9,1.3l-1.9,1.9l-1,2.9l-1.3,2.9l-0.6,1l-0.6,0.3h-0.6l-1-1v-0.6l1-3.6
		l1.9-3.2V401l-0.3-1.6l-2.6-4.5l-3.9-2.6h-6.8l-1.9-1l-1.9-0.3l-1.6-1.3l-6.1-0.3l-1.6-0.3l-3.6-1.6v-3.2l-1-0.6l-1.9-0.3l-2.3-4.8
		l-0.6-2.6v-3.6l0.6-1.9l0.3-2.3v-1l1.6-1.9l2.3-1l1.3-0.3l0.3-1l-0.3-0.3l-0.3-0.6l0.3-0.3l0.6-0.3v-1.9l1-1l1-1.9l1-0.3H-56.2z
		 M21.1,364.8l0.3,0.6l3.6,1l1,0.6l9.7,0.6l3.9,1l0.6,1l1.6,2.6l-0.6,2.3l0.6,0.3l0.6-0.3l0.6-1h0.3l6.1,2.6l1.3-0.3l0.6,0.6l1-0.3
		v0.3l3.2-1l1.3-1l2.9-0.3l0.6,1.6h-1.3l0.3,1l-0.3,0.3l-1.9,0.3l-1,1l-0.3,3.2l0.6,2.9l-0.3,1.6l-0.6,0.3l0.3,1.6l-0.3,0.6
		l-1.9,1.3l-1.9,1l-2.9,1h-6.1l-8.7,0.3l-3.6,1.3l-5.2,3.2l-2.3,1h-1l-1.3-0.3v-32.6H21.1z M472.1,442l1,0.3l1.9,1.3l-0.3,1l0.6,1.3
		l-0.3,1.3l-1,1l-1.3,0.3l-0.6,0.3h-1.3l-1-0.6l-0.6-0.6v-1.3l-0.6-1v-1l0.6-1l1-0.6h1L472.1,442z M525.4,413.6l1,0.6l0.3,0.3v1.3
		l-2.3,4.5l-0.3,0.3l-1.3,0.6l-1.3-0.3l-0.6-1l-0.3-0.6l0.3-1v-0.3l1.9-3.6h0.3l1-1H525.4z M476.6,501.4l1,0.6l0.3,1.3l-1.6,2.9
		l-0.6,0.3h-1L474,506l-0.3-1l1.6-2.9l0.3-0.3L476.6,501.4z M376.1,216.5l2.9,0.6l1.6,1l1.6,3.2l1.9,0.3l1.9-0.3l1.3,1.3l-0.3,1.6
		l0.3,1.9l1,0.6l1.9,0.6l0.6,0.6l1,5.2l0.3,3.2l-0.6,3.6l-1,4.2l-1.9,4.2l-2.9,4.2l-3.9,3.9l-3.9,2.9l-3.9,2.3l-3.6,1.3l-3.2,1
		l-2.6,0.3h-2.6l-17.4-16.8l0.3-4.5l0.6-3.9l1.3-3.6l3.2-5.8l1.9-2.3l3.6-3.6l4.2-3.2l2.9-1.3l3.2-1.3l3.2-1l3.6-0.6H376.1z
		 M-56.2,356.1l0.6,1.6l1,0.6h0.3l1-1.3h0.3l1,0.3l0.6,0.6l1,2.9l3.6,3.6l2.9,3.6l3.6,5.8l1.3,1.3l2.9,1.3l1-0.6l7.1-2.3l2.6-0.3
		l0.6-1l1.6-1h1.3l2.9-0.6V370l-1-1v-0.3l4.5-2.9l1.3-0.6l1.9-0.3l1.3-0.6l1.3-1h7.4l7.1,2.3l0.6,0.6l1.3-0.3h1.3l5.8-2.3h4.2l1,0.6
		l0.6,0.6h0.3v-0.3l1,0.3l0.3,0.6l3.6,1l1,0.6l9.7,0.6l3.9,1l0.6,1l1.6,2.6l-0.6,2.3l0.6,0.3l0.6-0.3l0.6-1h0.3l6.1,2.6l1.3-0.3
		l0.6,0.6l1-0.3v0.3l3.2-1l1.3-1l2.9-0.3l0.6,1.6h-1.3l0.3,1l-0.3,0.3l-1.9,0.3l-1,1l-0.3,3.2l0.6,2.9l-0.3,1.6l-0.6,0.3l0.3,1.6
		l-0.3,0.6l-1.9,1.3l-1.9,1l-2.9,1h-6.1l-8.7,0.3l-3.6,1.3l-5.2,3.2l-2.3,1h-1l-2.3-0.3l-1.9,0.3h-1.6l-1.9-0.3l-1.3,0.3l-3.2,2.6
		l-2.6,2.6H5.9l-0.6-0.3l-1-1.9l-1-4.8l0.3-3.6l-0.3-0.3l-1.9-0.3L0.7,391l-2.3-0.6l-1,0.3h-0.3l-0.6,4.2l-1.3,1.3l-1.6,1.3
		l-2.9,1.9l-3.9,1.3l-5.8,1.6l-4.8,1.6l-1.9,1.3l-1.9,1.9l-1,2.9l-1.3,2.9l-0.6,1l-0.6,0.3h-0.6l-1-1v-0.6l1-3.6l1.9-3.2V401
		l-0.3-1.6l-2.6-4.5l-3.9-2.6h-6.8l-1.9-1l-1.9-0.3l-1.6-1.3l-6.1-0.3l-1.6-0.3l-3.6-1.6v-3.2l-1-0.6l-1.9-0.3l-2.3-4.8l-0.6-2.6
		v-3.6l0.6-1.9l0.3-2.3v-1l1.6-1.9l2.3-1l1.3-0.3l0.3-1l-0.3-0.3l-0.3-0.6l0.3-0.3l0.6-0.3v-1.9l1-1l1-1.9l1-0.3H-56.2z M21.1,364.8
		l0.3,0.6l3.6,1l1,0.6l9.7,0.6l3.9,1l0.6,1l1.6,2.6l-0.6,2.3l0.6,0.3l0.6-0.3l0.6-1h0.3l6.1,2.6l1.3-0.3l0.6,0.6l1-0.3v0.3l3.2-1
		l1.3-1l2.9-0.3l0.6,1.6h-1.3l0.3,1l-0.3,0.3l-1.9,0.3l-1,1l-0.3,3.2l0.6,2.9l-0.3,1.6l-0.6,0.3l0.3,1.6l-0.3,0.6l-1.9,1.3l-1.9,1
		l-2.9,1h-6.1l-8.7,0.3l-3.6,1.3l-5.2,3.2l-2.3,1h-1l-1.3-0.3v-32.6H21.1z M590.3,206.1v-0.3h1.6l3.6,0.3H590.3z M438.8,206.1l1-1.3
		l0.3-4.8l-1-3.9l-1.9-2.9l-0.6-0.6l-1-0.3l-4.2,0.6l-4.2,1.3l-3.2,1.3l-4.2,2.6l-0.6,0.6l-0.3,2.6l-1.6,2.3l-0.6,1.9v0.6h-30
		l-2.6-2.6l-0.6-1.6l1.9-5.2l0.6-6.8l-0.3-0.3l0.3-2.6l-0.6-1.6v-1.6l1.9-4.5l0.3-1.6l1-1.6l1-4.8l1.3-1.9l1.6-1.3l2.3-3.9l5.2-7.8
		l0.6-0.6l4.8-1l1-0.6l5.2-4.8l4.8-3.6l1-0.3l2.3-0.3l6.1-2.6h3.2l1.6-1.3l1-1.3l4.8-0.3l7.1,1h3.9l6.8,2.3l1.3,1l1.9,2.3l1.6,1
		l2.9,0.3l1.3,0.6l1.6,1.9l2.3,0.3l4.8,2.9l3.9,1.3l5.2,0.6l2.9,2.9l1.3,0.3h6.1l6.1,1l3.9-0.3l0.3-0.3l5.8,3.9l15.2,10.7l4.8,3.9
		l12.3,10l1.9,0.3l4.8-1l4.2,0.6l-0.6,1.9l-2.3-0.6l-1.6,6.5l2.6,0.6l-1.3,6.1l8.4,1.9v-1l5.8,1h2.3l1.6,2.6h-57.5l-3.9-4.2
		l-2.9-2.3l-3.9-1l-6.1-0.3l-3.9,0.3l-4.8,0.6l-5.2,1l-5.5,1.6l-6.1,2.9l-2.3,1.3H438.8z M510.5,164.8l12,8.4l4.8,3.9l12.3,10
		l1.9,0.3l4.8-1l4.2,0.6l-0.6,1.9l-2.3-0.6l-1.6,6.5l2.6,0.6l-1.3,6.1l8.4,1.9v-1l5.8,1h2.3l1.6,2.6l1.9,2.3l1.9,1.3l4.5,1.6
		l3.9,0.3l2.6-0.6l3.9-1.6l4.5-2.6l1.6-0.3v-0.6h1.6l3.6,0.3l2.9,1.3l2.9,2.3l0.6,2.3l1.6,1.3l2.3,0.6h5.2l2.3-0.6l1.6-1.3l2.3-0.3
		l1-0.3l7.1,1l4.8,3.2l1.3,1.6l1.3,2.3l1.3,3.9l1.9,10.7l1,1.3l-0.6,4.2l-1.3,4.5l-1.6,4.2l-2.3,1l-1.6,1.6l-1,2.6l-1.6,1.9
		l-1.3,2.6l-1.3,1.6l-2.3,3.2l-10.3,14.5l-3.9,7.1l-1.3,1.6l-3.2,3.2l-11.3,7.1l-2.6,2.9l-2.9,3.6l-1.3,2.6v1.9l-1,2.3l-0.3,10.3
		l-1.9,5.8l-0.3,2.9l0.6,1.6l-0.3,1.3l0.3,1.9l-0.6,1.6L580,337v1l-0.6,1l-1.3,2.6l-2.3,2.3l-1.3,0.6l-3.9,3.9l-5.2,2.6l-3.6,2.6
		l-3.9,4.2l-4.8,5.8l-0.3,0.6v1.9l-0.3,1.6l-1.3,1.6l-1.9,4.2l-1,6.5v2.6l-1,3.9l-1.6,0.6l-2.6-0.6l-2.6-0.3h-2.9l-1,0.3v0.3h-0.3
		l-3.9-0.6l-2.9,0.3l-2.3,1H527l-0.6-0.6l-1.3-2.3l-0.3-3.2l-0.6-1l1-0.3l1.3-3.9l2.6-4.2l1.6-0.3l0.6-0.3l-0.3-1.6l2.3-1l0.6-0.6
		l0.3-0.6v-0.6l2.3-1.3l3.9-3.2l2.9-4.2l2.6-6.1l2.6-9l1-7.8v-4.5l-0.3-4.2l-1-3.9l-1.3-3.9l-2.9-4.8l0.3-1.3l-0.6-1l-1-1.3
		l-3.9-3.2l-3.9-2.3l-3.2,0.3l-3.2,1.3h-1.6l-1,0.6l-1.6-1l-0.6-1.6l-0.3-1.6l0.3-1.3l5.5-8.1l1.9-4.8l0.6-3.6l0.6-5.8l0.3-3.2
		l-1.3-7.4l-1-4.2l-1.3-2.9l1.3-1.6v-1.6l-1.6-4.8l-1-1.3l-1-1.6l-2.3-1l-2.9-1.6l-1.6-0.3l-5.8,0.6l-1.6,1l-1,1l-3.9,0.6l-1.6,0.3
		l-1.9-0.6l-1.6-1.3l-1.6-1.9l-1-1.3l-0.3-2.9v-0.6l1-1.9l2.3-2.3l5.5-4.8l1.9-2.3l2.3-4.8l0.6-3.2l0.3-1.9l-0.3-5.2l-1.3-4.2
		l-1-1.9l-2.3-2.9l-4.5-4.8l-2.9-2.3l-3.9-1l-6.1-0.3l-3.9,0.3l-4.8,0.6l-5.2,1l-5.5,1.6l-6.1,2.9l-7.8,4.5l-5.2,3.6l-4.2,2.6
		l-7.1,2.9l-4.5,1.3l-5.2,1l-12.9,1.6l-6.1,0.6H410l-3.2-0.3l-2.3-0.3l-3.2-1.9l-7.1-7.1l-9-8.4l-1.3-1.3l-0.6-1.6l1.9-5.2l0.6-6.8
		l-0.3-0.3l0.3-2.6l-0.6-1.6v-1.6l1.9-4.5l0.3-1.6l1-1.6l1-4.8l1.3-1.9l1.6-1.3l1.9-3.2H510.5z M435.6,192.3l-4.2,0.6l-4.2,1.3
		l-3.2,1.3l-4.2,2.6l-0.6,0.6l-0.3,2.6l-1.6,2.3l-0.6,1.9l0.6,4.2l0.3,1l1,0.6l4.2,1h0.6l3.6-1.3l5.8-1l3.2-1.6l2.9-2.3l1-1.3
		l0.3-4.8l-1-3.9l-1.9-2.9l-0.6-0.6L435.6,192.3z"/>
	<path id="road_path" class="st8" d="M-2.2,206.1L12.3,180l32-58.8l17.8-31.7 M20.7,164.5l23.6-43.3l100.8-180 M-202.5,568
		l105.3-189.7L-42,278.2L12.3,180l8.4-15.2 M36.6,116.3l7.8,4.8l1.9,1.3 M36.6,116.3l7.8,4.8l1.9,1.3 M20.4,206.1l0.3-1l4.8-11
		l2.9-5.2l9.7-11.3l9-9l1.3-1.3l4.5-3.6 M20.7,205.2l4.8-11l2.9-5.2l9.7-11.3l9-9l1.3-1.3l4.5-3.6 M12.7,221.7l8.1-16.5l4.8-11
		l2.9-5.2l9.7-11.3l9-9l1.3-1.3l3.2-2.6 M20.7,205.2l4.8-11l2.9-5.2l9.7-11.3l9-9l1.3-1.3l3.2-2.6 M49.5,111.8L34,103.4l-9,16.5
		l15.8,7.8 M49.5,111.8L34,103.4l-9,16.5l15.8,7.8 M19.4,167.1l-15.5-7.4l-6.1,11.3l14.5,9 M101.5,22l-1-1l-2.6-1.3 M97.9,19.7
		l-6.1-3.6 M498.3,112.8l-18.4-10.3 M-2.2,206.1L12.3,180l32-58.8l17.8-31.7 M20.7,164.5l23.6-43.3l100.8-180 M-202.5,568
		l105.3-189.7L-42,278.2L12.3,180l8.4-15.2 M498.3,112.8L581,159l75,41l0.6,1.3l0.3,1.6l-0.6,3.2 M591.6,164.8l64.3,35.2l0.6,1.3
		l0.3,1.6l-1.3,6.1l-0.3,3.2l0.3,2.6l0.6,2.9l1.9,4.2l2.9,2.9l2.3,1.6l2.3,2.3l2.3,2.9 M635.9-130.5L564.8,1 M46.3,122.5l-3.2,8.4
		l-0.3,1.6 M36.6,116.3l7.8,4.8l1.9,1.3 M36.6,116.3l7.8,4.8l1.9,1.3 M220.7,179l3.9,14.2l4.8,9.7l1.3,3.2 M220.7,179l3.9,14.2
		l4.8,9.7l2.3,5.5l2.3,8.4l1.3,6.5l0.3,4.8l0.3,4.8l-0.3,4.8 M131.2,58.2l1-0.3 M337,42.7l0.6-3.9l-0.3-3.2l-0.6-2.6 M220.7,179
		l3.6-0.6l2.3-1l7.4-8.7l2.9-3.6l2.9-2.9l2.6-1.9l4.8-2.9l7.1-2.6 M213.6,180.9l7.1-1.9 M263.4,9.4l1.3-2.6l1-0.6l1-0.3l17.8,6.1
		l5.2,1l5.2,0.3l2.3-0.3l5.2-1.6 M265.3,17.1l-21-4.2l-23.6-2.3L213,9.4l-8.4-2.3l-6.1-1.9L189.1,1l-5.2-1.6l-7.4-0.6L168.7,0
		L163.2,2L158,4.9l-8.4,7.4l-5.8,6.5l-4.5,7.8l-4.2,8.7l-2.9,10.3l-1.3,7.1l0.3,5.5 M191.6,111.8l-0.6,1l-2.6,1l-4.5,1.3l-8.4,2.9
		l-11,0.3l-2.9,0.3l-5.2,1.9l-2.3,1.3l-2.9,2.3l-9.7,7.8 M333.2,49.8l3.6-5.5l0.3-1.6 M194.5,107l5.8,3.2l7.8,7.1l6.1,7.4l4.2,9
		l2.6,6.5l0.6,7.4l-0.3,6.5l-1.3,17.8l0.6,7.1 M194.5,107l-1.3,2.6l-1.6,2.3 M333.2,49.8L321.8,42 M131.2,58.2l0.3,5.2l2.9,10.7
		l4.2,6.1l7.1,7.4l7.8,5.5l9,3.6l24.2,7.4l7.8,2.9 M330.2,18.8l-22.6-12 M307.6,6.8L306,9.1l-1.3,1.3l-2.6,1 M363.8,184.5l4.5-9.4
		l6.8-14.9l2.6-7.1l2.6-7.8l2.3-10l1-20.7l-0.3-5.5l-0.6-4.8l-1.3-3.9l-1.9-4.8l-2.3-3.2l-3.6-5.5l-16.5-20.4l-4.5-4.8l-11.6-10
		l-17.4-13.2 M321.8,42l-8.1-5.8l-11.3-6.8l-9-3.9l-22.9-6.5l-5.2-1.9 M344.8,206.1l4.5-5.8l10-18.1l12-25.2l4.5-14.2l2.6-10
		l1.9-12.9l-0.6-14.2l-3.6-9.4l-6.8-11l-20-22.3l-16.2-13.2 M294.4,291.4l-1-4.8v-8.7l2.3-8.4l3.2-6.1l11-14.5l13.6-15.8l14.9-18.4
		l11-14.2l10-18.1l8.4-17.4 M56.6,161.2l-3.6,2.6l-0.6,6.5l-5.5,14.2l-0.6,2.9 M53,164.8l-0.6,5.5l-5.5,14.2l-0.6,2.9 M297.3,94.7
		l6.5-5.5l2.6-2.6l3.6-4.8l1-2.6l0.6-2.6 M243,64.3l-7.8-6.5l-2.6-2.9l-1-1.6 M274,92.1l-0.6-0.6l-0.3-0.6v-0.3l1-0.3 M140.9,57.2
		l10-0.6l1.3,0.3l2.9,0.6 M307,147.3l-0.6-12.3l0.3-4.8 M294.4,206.1l1.3-1.9l4.5-6.5l2.6-2.9l9-8.7l2.9-3.2l1.3-7.8l0.3-2.3v-2.6
		l0.3-2.6l2.6-2.6l0.3-1.3l0.3-1.3l-1-8.7l-0.6-1.9l-1.9-3.6l-0.3-2.9l0.3-1l0.6-1l2.3-1 M242,235.9l8.4-1.3l7.8-2.3l13.6-3.9
		l6.5-2.6l4.2-3.6l4.8-5.2l8.4-12.9l4.5-6.5l2.6-2.9l9-8.7l2.9-3.2l1.3-7.8l0.3-2.3v-2.6l0.3-2.6l2.6-2.6v-0.3 M255,40.7l1,0.6
		l1.3-1.3l1.3-0.6l8.7-2.9l5.2-2.6l0.3-1l-0.3-1.6l-0.3-1l-1-1l-3.2-1.9l-2.6-1l-2.3-1.9l-1-1.3l-1.3-2.9l0.3-2.9 M364.5,127l1,4.8
		l-1.6,5.8 M248.8,66.9h7.8 M304.7,129.6v-5.2l0.3-1.6 M275.6,34.3l-1.3,0.3h-3.2 M276.9,48.2l1.6,1.6l1,1.6l0.6,3.2l0.6,2.9
		l1.3,2.9l1.6,2.3l-0.3,4.8l0.6,1.3l1.6,2.3v3.6l-1,7.4l-0.6,1.6l-0.6,1l-5.5,4.8l-1.9,2.3l-0.3,1.3l-0.6,6.1 M363.8,137.7l0.3,2.3
		l0.6,1.6l1.3,0.6 M570.3,174.5l-5.2-3.9l-2.9-1.9l-3.2-1 M223.9,75.9l-0.3-2.6l-0.3-2.3v-0.6l1.3-1.3l1.6-1l5.2-0.3l3.9-0.6l4.2-1
		l1.9-1l1.6-1l2.6,1.6l3.2,1l-1.6,15.2 M111.5,28.8l1.9-6.1l2.6-5.8l3.9-7.4 M254.6,66.6l1-2.9l3.6-5.2 M245.3,45.2l1.9-1
		 M311.2,63.3l0.3-5.8 M283.7,62.7l1.3-1l2.6-1.3 M316.7,167.7l0.3-3.2 M311.5,74.3l-0.3-8.7 M311.2,65.6v-2.3 M272.4,31.4l1,0.3
		l2.3,2.6l3.6-0.3l4.2-0.3h1.6l1.9-0.3h0.3l1.6,1.9 M238.5,78.8l10.7,3.9l2.9,1.6l4.2,3.2l9.4,8.7l3.6,2.9 M306,121.8l1.9-2.9V115
		l2.6-10.7l-1-6.5l-0.6-11l-1.6-1.3 M247.2,44.3l2.3-1.6l4.8-0.3l1.6-1l1,1l1.3,0.3l11,2.6l1.6,0.3l2.9,1.6l1.9,0.6 M311.5,76.6
		v-2.3 M303.4,151.9l1.3-1.6 M301.5,154.8l1.9-2.9 M383.6,147.3l3.9,1.9 M294.1,96.3l3.2-1.6 M387.4,149.3l1.9,1.3 M119.9,9.4
		l3.9-7.1 M233.3,44.9l2.3-1 M328.6,57.8h2.9 M317,164.5l1-1.6 M127.7,59.1l3.6-1 M304.7,150.3l2.3-2.9 M275.6,93.1l-1.6-1
		 M275.6,47.8l1.3,0.3 M318,162.9l1.9-1.3 M305,122.8l1-1 M132.2,57.8l8.7-0.6 M254.3,154.8l1.9,2.9l3.2,6.5l2.6,6.8l1.3,3.2
		l1.6,3.9l1.3,1.6l2.6,2.3l4.8,3.6l2.6,1.6 M259.8,164.8l2.3,6.1l1.3,3.2l1.6,3.9l1.3,1.6l2.6,2.3l4.8,3.6l2.6,1.6 M235.6,44
		l4.8-0.6l3.2,1.6l1.6,0.3 M20.4,206.1l0.3-1l4.8-11l2.9-5.2l9.7-11.3l9-9l1.3-1.3l4.5-3.6 M20.7,205.2l4.8-11l2.9-5.2l9.7-11.3l9-9
		l1.3-1.3l4.5-3.6 M12.7,221.7l8.1-16.5l4.8-11l2.9-5.2l9.7-11.3l9-9l1.3-1.3l3.2-2.6 M20.7,205.2l4.8-11l2.9-5.2l9.7-11.3l9-9
		l1.3-1.3l3.2-2.6 M231.7,53.3l-0.6-2.3l0.3-2.3l0.3-1.9l1.6-1.9 M55.9,159.9l3.2,13.6l1.9,5.5l1.6,2.9l5.5,6.5 M57.2,164.8l1.9,8.7
		l1.9,5.5l1.6,2.9l5.5,6.5 M389.4,150.6l-6.8,12.9l-1.6,4.2l-2.6,8.1l-0.6,3.6l-1.9,22 M381.9,164.8l-1,2.9l-2.6,8.1l-0.6,3.6
		l-1.9,22 M458.5,118.3l10,2.6l4.2,0.6l4.5-0.3l3.2-0.6l3.6-1.6l2.6-1.3l2.9-2.9l2.6-2.9l5.2-9 M458.5,118.3l-7.8-2.6l-19.4-9.7
		l-4.2-1.3l-4.2-1.3l-3.9-0.6h-3.9h-3.6 M565.5,190l1.6-8.7l0.3-1.9l1.3-2.9l1.6-1.9l2.6-3.2l2.9-3.9l5.2-8.4 M565.5,190l1.6-8.7
		l0.3-1.9l1.3-2.9l1.6-1.9l2.6-3.2l2.9-3.9l1.6-2.6 M507.9,100.2l-11.3,12 M405.8,85.3h4.2l4.5,0.3l9.7,1.9l2.9,1.3l2.6,1l2.9,1.9
		l9,7.1l2.9,1.6l14.2,7.1l2.6,1l2.3,0.6l5.5-0.3l2.9-0.6l3.9-1l2.3-1.3l0.6-1.3l1-2.3 M279.8,133.1l-7.4-13.6l-1.9-6.8l-1-5.2
		l-1-6.5l0.6-1.9 M123.8,2.3l3.6-5.8l2.6-3.2l12.6-13.6l8.4-7.4l8.4-5.5l13.6-4.2l9.7,0.3l5.8,1.6l5.5-0.6l9.4-2.6l3.2-1
		 M190.3,206.1l7.8-12.3l1.9-2.6l2.9-3.2l5.5-5.2l5.2-1.9 M133.8,234.3l3.2-1l4.2,1.3l2.9,0.3l3.6,0.3l2.6-0.3l6.1-3.2l5.2-3.9
		l7.1-6.1l8.1-4.2l4.2-2.9l6.1-4.5l2.6-2.9l8.4-13.2l1.9-2.6l2.9-3.2l5.5-5.2l5.2-1.9 M110.5,32l-2.6-2.6l-3.6-4.5l-2.9-2.9
		 M389.4,150.6l9-9.7l6.5-5.8l7.1-6.1l3.6-1.9l-3.9-24.2l-1.6-5.8l-4.2-11.6l-12.3-11.6l-15.2-9l-11.6-8.4l-9.4-9.7l-16.2-10
		l-4.5-3.6 M201.7,99.2l-7.8-2.9l-4.2-2.3l-2.3-1.6l-4.8-3.9l-6.5-6.8l-1.6-2.3l-5.8-1l-8.4-3.2l-3.9-2.3l-3.2-3.6l-1.3-1.9l0.6-2.6
		l2.6-7.4l2.9-0.3l1.9-1l3.9-2.3l1.3-1.3l1.3-1.6l1-2.6l0.3-2.6l0.6-5.8l0.3-1.9l7.1-11.3l0.6-0.6l3.9-1.3h2.3l14.2-0.6l3.6-0.3
		l1.6,0.3l2.6,1l5.8,3.6l2.6,1l2.3,1h7.1l9.4,1.3l7.1,0.6l2.3,1l2.9,1.9l5.5,1.6l3.9,2.3l1.6,1.3 M42.7,132.5l0.6,2.3l1,1.6l8.7,3.9
		l1.6,1.9l0.6,2.3l0.6,2.6v7.1v5.8 M238.5,78.8l-5.2-1.9l-3.6-0.6l-3.2-0.3h-3.9l-2.6,0.6l-4.8,2.3l-4.2,3.6l-1.6,1.9l-1.6,4.2
		l-1.3,5.8l-1,1.9l-1,1.3l-2.9,1.6 M323.5,38.5l-9-4.8l-5.2-2.9l-6.1-3.2l-11.3-4.8l-9-3.6L266,14.6l-18.1-4.2l-14.2-1.6l-16.2-1.6
		l-6.1-1l-6.5-1.6l-5.5-1.9l-9-3.9l-4.5-1.6l-3.9-0.6l-3.9-0.3h-3.9l-4.2,1l-5.8,1.6l-5.8,2.6l-3.9,2.3l-4.8,3.6l-6.8,7.4l-2.9,3.9
		l-4.8,8.1l-4.2,9.7L129,43l-0.6,5.2l-0.6,6.5v4.5L128,63l1.6,5.5l1.9,6.1l2.9,5.2l2.9,4.5l3.2,3.9l2.9,2.6l3.9,2.9l3.6,1.9l4.2,1.9
		l30.4,9.4l10,3.9l4.8,3.9l4.5,4.2l3.9,4.2l2.6,4.2l4.2,8.4l2.3,7.8l0.6,7.8l-1.6,15.2l0.3,8.4l0.6,4.8l0.3,3.2l1,4.2l3.6,11
		l4.2,8.1 M217.2,164.8l-0.3,1.6l0.3,8.4l0.6,4.8l0.3,3.2l1,4.2l3.6,11l5.2,10l2.6,8.7l1.6,12.3l0.3,4.8l-0.6,10l-1.3,6.5l-1.3,4.8
		l-2.3,6.1l-3.9,8.1l-3.6,6.1l-12.9,15.8l-5.8,5.8l-7.1,6.1l-5.2,3.9l-7.1,4.5l-8.7,5.2l-10,4.5l-13.2,4.8l-20.4,6.5l-5.2,2.6
		l-10.7,7.1l-6.8,6.1l-9.4,12l-3.2,6.8l-2.9,8.4 M311.5,57.5l1-1l1.3-1.3l1.9-0.3h2.3l1.9,0.6l3.6,1.9l1.9,0.6l3.2-0.3 M323.5,38.5
		l-2.3-3.6l-1.3-2.9l-1-2.9v-3.9l0.6-3.2l1-3.6l1.9-3.9l4.5-6.5 M382.6,135.4l3.2-8.4l2.6-4.8l2.6-3.2l3.6-3.6l4.5-3.9l12.6-8.7
		 M411.7,102.8L401,99.9l-6.5-2.3l-4.2-2.3l-4.5-3.2l-7.8-6.5l-8.7-9.4l-12.3-9.7 M350.3,206.1l4.5-6.8l9-14.9 M298.3,290.5
		l-0.3-3.9l0.3-7.8l1-3.9l1.6-4.8l2.3-3.9l4.8-6.8l32.6-39.4l4.5-6.1l9.7-14.5l9-14.9 M338,5.5l22.9-41l27.1-49.8L443-185.4
		l27.1-50.4l10.7-22l2.9-2.9l2.9-4.2l14.5-23.9l7.4-15.5l22-38.8l27.5-50.4l28.1-49.8L666.3-588 M163.9,54l2.3,3.2l0.6,7.8l2.6,4.5
		l5.2,5.5v4.5 M168.7,38.1l-23.6,3.2l-8.4,3.9l-4.5,0.3 M46.3,122.5l20.4-5.2l5.8-3.6l4.5-4.5l5.5-7.1L87,96l9.4-15.8l3.2-4.5
		l5.5-6.1l3.2-2.3l11.3-5.2 M364.5,127l2.6-3.9l2.3-3.9l2.3-6.5l0.3-1.6v-6.5l-1.3-5.2l-1.9-4.5l-1.6-1.9l-2.3-1.9l-11.3-9l-3.9-3.9
		l-7.1-8.7l-11-11.6v-2.6v-2.6l1.6-2.9 M254.3,154.8l7.8-3.2l2.9-1.9l5.2-4.8l9.7-11.6 M119.6,62l3.2-1.3l4.8-1.6 M141.6,131.8
		l-6.1-5.2l-6.1-6.5l-2.9-4.2l-4.2-8.7l-1.9-8.1l-0.3-5.5l-0.3-6.5l1.3-12.9l-0.3-5.2l-1-7.1 M279.8,133.1l8.1-3.6l4.8-1.6h2.6
		l4.8,0.3l3.2,1l3.2,1l5.5,3.2l3.2,2.9l3.2,4.5l3.2,6.5l0.6,1.6l1,1l1.6,1l3.2,0.6h1.9l4.5-1.9l3.6-1.9l9.7-6.5l3.9-2.6l5.2-3.9
		l7.4-7.8 M302.1,11.3L271.8-4.8l-15.5-9.4L233-25.5l-14.2-8.4l-7.8-3.9l-4.5-1.9l-3.2-2.3l-9.4-4.5l-3.2-1.9l-6.1-4.5l-6.5-5.2
		l-1.3-0.3h-1.3l-1.3,0.3L161.3-63 M201.7,99.2l-4.5,3.6l-2.6,4.2 M276.3,187.1l1-2.3l3.6-3.6l1.9-4.2l8.7-12.6l3.6-5.8l1.3-1.6
		l1-0.6l2.9-0.6l1.3-1 M276.3,187.1l1-2.3l3.6-3.6l1.9-4.2l8.4-12.3 M269.2,99.2l3.6-0.3l3.2,0.3l3.6,1l4.5,0.6l1.9-0.3l1.9-0.6
		l6.1-3.6 M119.6,62l-1.6-7.8l-2.6-11l-1.9-5.2l-2.9-6.1l1-3.2 M336.7,33l-6.1-4.2l-1.6-2.3l-0.6-1.6v-1.3l1.9-4.8 M504.4,38.8
		l-2.9-55.6 M527.7,63.3l176.4,97.9 M485.3-25.5l1.6,54.3 M708.9,152.5L532.8,54 M501.5-16.8L535.7,2 M471.1,80.5l5.8-2.9l10-18.1
		l-1-20 M535.7,2l-22.6,41.4 M497.3,45.9l4.5-3.6l2.6-3.6l-17.4-10l-1,10.7 M555.1,12.9l176.4,98.5 M486,39.4L508.3,52 M508.3,52
		l-21.6,37.2 M513.1,43.3l-8.7-4.5 M555.1,12.9l5.2-9.4L540.6-7.1l-4.8,9 M507.9,100.2l19.7-36.8 M532.8,54l22.3-41 M560.3,3.6
		l4.5-2.6 M535.7,2l19.4,11 M513.1,43.3l-4.8,8.7 M527.7,63.3l5.2-9.4 M532.8,54l-19.7-10.7 M508.3,52l19.4,11.3 M486.6,89.2
		L338,5.5 M330.2,18.8l149.6,83.7 M338,5.5L314.7-7.4 M338,5.5l-7.8,13.2 M170.3-70.4L307.6,6.8 M664,186.8l-156.1-86.6
		 M498.3,112.8l-7.8,15.8l-0.3,3.2l2.6,9l2.9,7.1l2.9,5.2l3.6,3.6l6.1,4.5l15.5,10.3l7.8,4.8l5.2,2.6l5.2,1.9l28.1,5.8l2.9,1
		l3.2,1.3l16.5,10l12.9,7.1 M616.2,206.1l2.6-0.6h2.6l1.9,0.3l1.3,0.3 M513.8,164.8l10,6.8l7.8,4.8l5.2,2.6l5.2,1.9l28.1,5.8l2.9,1
		l3.2,1.3l16.5,10l13.6,7.4l2.6,0.6l1.9,0.3l1.9-0.3l3.6-1l2.6-0.6h2.6l1.9,0.3l4.8,1.3l17.1,9.7l1,1l1.3,2.6v3.6l-0.6,2.3l-1.9,4.8
		l-2.3,4.2l-1.9,9l-5.8,13.2l-2.6,4.8l-3.6,5.5l-16.2,21.3l-3.9,7.1l-3.2,7.1l-5.2,14.9l-4.2,10.7l-4.2,9.7l-6.5,9.7l-12.6,18.1
		l-4.8,8.1l-1.9,4.5l-2.3,5.5l-4.2,13.2l-3.2,6.1 M479.8,102.4l6.8-13.2l14.2,7.4l7.1,3.6 M307.6,6.8l7.1-14.2 M49.5,111.8L34,103.4
		l-9,16.5l15.8,7.8 M49.5,111.8L34,103.4l-9,16.5l15.8,7.8 M564.8,1l59.1,32.3L694.7,73l44.6,24.9 M135.1,176.7l1.6-4.8l1.6-10.3
		l0.3-10l2.9-19.7 M415.5,127l7.8,4.8l3.2,1.6l4.2,1.3l3.6,0.3l6.8,0.3l4.8,0.6l9.4,2.3h4.2l4.5-0.3l4.2-0.6l15.2-4.5l3.2-0.6
		l3.6-0.3 M145.8,184.5l5.8-7.4l5.2-5.8l7.4-7.4l3.6-2.9l3.9-2.3l3.9-1.6l4.5-1l4.8-0.3l3.9,0.3l4.2,0.6l3.9,1.9l4.5,3.9l7.4,5.2
		l2.6,3.2l1.9,6.8l0.3,3.2 M366.1,142.2l1.9,0.6l4.2-1l3.6,1l7.8,4.5 M149,206.1l0.3-2.6V200l-0.3-4.2l-1.3-7.1l-3.2-6.1l-1.9-2.6
		l-3.6-2.3l-8.1-1.9l-4.2-0.6l-4.8-0.3H116l-5.5,1l-12.6,2.9l-18.1,4.8l-4.8,1.6l-4.5,1.9l-3.6,1.9l-1.6,1.3l-1.6,1.9l-1.3,2.6
		l-1.9,5.5l-0.6,5.8 M144.5,217.1l1.9-4.2l2.3-5.8l0.6-3.6V200l-0.3-4.2l-1.3-7.1l-3.2-6.1l-1.9-2.6l-3.6-2.3l-8.1-1.9l-4.2-0.6
		l-4.8-0.3H116l-5.5,1l-12.6,2.9l-18.1,4.8l-4.8,1.6l-4.5,1.9l-3.6,1.9l-1.6,1.3l-1.6,1.9l-1.3,2.6l-1.9,5.5l-0.6,6.5v7.4l1,5.2
		l1.9,3.2l1.9,3.2l3.2,3.6l3.2,3.6l4.2,3.2l3.6,1.6l4.8,1.9l7.4,1l7.8,0.3l5.5-0.6l4.8-0.6l5.8-1.6l7.8-2.3l7.1-3.2l4.5-3.6l6.5-7.1
		L144.5,217.1 M318.3,3.2l-6.5,10l-1.9,2.6l-1.6,1.6l-2.6,1.6l-2.3,1l-5.2,0.6l-15.5-1.6 M488.9,98.2L484,107l-2.6,3.6l-3.2,2.6
		l-2.6,1.6l-2.9,1.6l-2.9,0.6l-3.2,1l-8.1,0.3 M261.1,17.5l2.3-8.1 M-2.2,206.1L12.3,180l32-58.8l17.8-31.7 M20.7,164.5l23.6-43.3
		l100.8-180 M-202.5,568l105.3-189.7L-42,278.2L12.3,180l8.4-15.2 M62.1,427.8l-7.8,4.5l-35.2,13.6L0.1,454l-15.2,8.1l-6.8,4.5
		l-17.4,15.8l-9,10l-8.7,12.3l-3.9,6.8l-20,38.4l-7.8,17.8l-13.2,33.9l-5.5,14.5l-1.9,4.8l-5.5,11l-8.1,12.9l-5.5,7.8l-5.8,6.8
		l-6.1,6.5l-13.6,10.7l-28.4,15.8l-8.1,7.1l-7.1,9l-5.2,8.7l-2.9,5.5l-2.6,8.1l-1.9,7.1l-0.6,6.1l-0.6,10.7l1,11.3l2.6,22.9v5.2
		l-1,10l-1.6,6.1l-2.9,9.4l-3.9,8.7l-3.2,5.2l-4.5,5.2l-4.2,4.5l-4.8,4.2l-6.1,4.2l-6.8,3.9l-58.2,24.2l-10.3,6.1l-18.4,13.2
		l-10.7,9l-15.2,15.8l-11.6,14.5l-13.9,20.4l-11.3,20.4l-4.8,10l-3.9,10l-2.6,10l-2.6,12.9l-1.3,11l-0.3,9l0.6,10.3l1,9l2.6,12
		l3.2,11.3l9,29.7l7.1,21.6l2.3,9.7l1,8.4v7.4l-0.6,8.4l-2.6,14.2l-1.9,5.8l-5.2,12.6l-7.1,14.5l-7.4,12l-16.2,21.6l-14.2,17.1
		l-12.9,12.9l-10.7,10.3l-10,7.1l-15.2,9.7l-8.7,6.1l-6.1,6.5l-7.8,9l-5.2,7.4l-5.2,10.7l-2.6,8.4l-1.3,7.8l-0.3,7.1l1.3,24.9
		 M78.2,413.6l-3.9,4.5l-4.5,4.8l-5.8,3.9l-9.7,5.5l-33.6,12.9 M13.9,264.6l-1,4.8v2.3l0.6,2.3l1.3,1.9l7.1,6.8 M27.8,234.3
		l-2.6-3.2l-2.9-1.9l-1.9-0.6l-3.9,0.6h-3.2l-0.6-4.2v-3.2 M4.2,258.8l1.9,2.6l1.6,1.3l11.3,3.9l2.6-5.2 M17.8,243l5.2-4.8l4.8-3.9
		l4.8-3.2l4.8-1.9 M46.3,218.4l-3.9-3.6l-9-5.2l0.6-1 M46.3,218.4l-3.9-3.6l-9-5.2l0.6-1 M34,208.7l2.3-3.9 M25.6,194.2l10.7,4.8
		 M13.9,251.4l12.9,3.9 M15.9,231l0.6-1.9 M1.7,258.8L1,254.9 M29.5,215.2l4.8,3.2 M22,282.7l5.5,4.8 M33.3,209.7l-11,15.5l-1.9,3.2
		l-1,4.8l-1.6,9.7l-5.5,11.6l-4.8,1l-3.2,3.2l-10.3,0.6l-0.3,2.9 M1,254.9l-1.6-11.6V242l0.3-1l0.6-0.6l0.6-0.6l9.4-3.2l3.6-2.6
		l1.9-2.9 M20.4,206.1l0.3-1l4.8-11l2.9-5.2l9.7-11.3l9-9l1.3-1.3l4.5-3.6 M20.7,205.2l4.8-11l2.9-5.2l9.7-11.3l9-9l1.3-1.3l4.5-3.6
		 M12.7,221.7l8.1-16.5l4.8-11l2.9-5.2l9.7-11.3l9-9l1.3-1.3l3.2-2.6 M20.7,205.2l4.8-11l2.9-5.2l9.7-11.3l9-9l1.3-1.3l3.2-2.6
		 M-15.5,286.9l2.3-0.3l1.9,0.3l6.8,2.3l10,2.9l3.9,1H13l6.1-0.6l3.2-1l1.6-0.6l2.9-2.3l2.6-3.9l2.9-8.1l1.6-6.1l0.3-3.2L34,243
		l0.3-2.9l1.9-8.1l4.2-7.4l1.9-2.9l2.6-2.6l2.9-1.6l2.9-1.3l9-1.9 M20.7,292.1l1.6-0.6l1.6-0.6l2.9-2.3l2.6-3.9l2.9-8.1l1.6-6.1
		l0.3-3.2L34,243l0.3-2.9l1.9-8.1l4.2-7.4l1.9-2.9l2.6-2.6l2.9-1.6l2.9-1.3l9-1.9 M62.1,486.6l-2.6-0.6l-10.7-3.2l-14.2-5.2
		L22,472.7l-3.6-0.6l-7.8-0.3l-6.1,0.6l-8.4,3.2l-8.4,3.9l-8.7,6.5l-3.9,3.9l-3.6,4.5l-4.2,5.5l-6.1,9.7l-7.4,16.5l1.3,7.8l0.3,8.7
		l-0.6,8.7l-1.6,10l-1.6,7.1l1.9,7.1l1.6,10.7l4.8,9.7l2.6,5.2l3.2,5.8l4.2,6.5l9,18.4l2.9,8.1l3.9,13.6l1.3,9 M138.7,492.7
		l-6.8-0.3h-6.5l-20.7,1.9L94.4,494l-6.8-1.3l-7.1-1.3l-21-5.5l-10.7-3.2l-14.2-5.2L22,472.7l-1.3-0.3 M53.4,395.5h-2.9l-13.6,1.6
		l-3.2,0.6l-6.5,2.6l-2.3,1.3l-2.9,1.6l-5.8,5.5l-4.2,4.8l-3.6,2.6l-2.6,1.3l-2.9,1l-2.9,0.3l-6.8-1l-3.2-0.6l-6.8-2.3l-2.3-0.3
		l-2.6,0.3l-1.9,1l-8.7,8.7 M53.4,395.5h-2.9l-13.6,1.6l-3.2,0.6l-6.5,2.6l-2.3,1.3l-2.9,1.6l-1.3,1.3 M-44.5,282.7l4.5,2.3l3.9,4.2
		l1.3,2.3l1,2.6l0.6,5.5l1.3,5.8l9,24.2l4.8,10.7l1.3,4.2l5.2,5.2l4.2,2.9l3.9,1.9l13.9,0.6l3.2,0.6l11.3,4.5l3.2,0.6h12.3l3.2,0.3
		l3.9,1.6l10,4.8l2.6,4.8 M20.7,358.6l4.2,1.6l3.2,0.6h12.3l3.2,0.3l3.9,1.6l10,4.8l2.6,4.8 M-85.2,569.6l9-18.4l6.1-11l5.2-7.1
		l12.3-15.2l8.4-11.3l5.2-7.4l6.1-8.4l6.1-7.1l6.5-5.8l4.5-3.2l5.5-2.9l9-3.2l6.8-1.9l8.4-1.3h5.2l12.3,1l23.9,2.9l6.8,0.3
		 M20.7,465.3l10.7,1l23.9,2.9l9.7,0.3l15.5,0.3l5.5-0.3l9-1.3l9-1.3l20.7-2.3l8.7,0.3l6.5,0.6 M9.4,293.1l1.6,1.3l3.9,1.6l5.8,1
		l6.1-0.3l8.1-1.6l5.8-1.6l5.2-2.6l4.2-2.3l5.8-5.2l3.9-4.5l2.3-4.2 M20.7,296.9l6.1-0.3l8.1-1.6l5.8-1.6l5.2-2.6l4.2-2.3l5.8-5.2
		l3.9-4.5l3.2-5.8l3.9-9.4l2.3-3.2l1-0.6h1l4.8,0.3l1.6-0.3l1-0.6l0.6-1.3l1-1.3l1.3-4.5l1.3-4.8l1-7.4 M62.1,423.9l-4.8,3.6
		l-3.9,1.9L3.6,447.8l-10,4.2l-17.4,11.6l-13.6,11l-11.3,12l-7.4,10l-8.1,12.9l-12.9,23.6l-7.4,15.8l-8.7,19.7l-17.8,46.5l-4.2,9.7
		l-2.9,5.2l-6.1,10.3l-4.2,6.1l-8.1,10.3l-7.1,7.1l-7.8,6.1l-31,19.1l-8.1,5.8l-7.1,7.4l-5.8,7.8l-4.8,8.4l-3.2,8.4l-2.6,10.3
		l-1,8.4V757l3.6,33.6l-0.3,7.1l-1,6.8l-2.3,8.7l-3.2,8.1l-4.8,8.1l-5.2,7.1l-6.5,6.5l-8.1,5.8l-9,4.8l-33.6,13.6l-25.2,11.6
		l-14.2,9.4l-12.9,8.7l-11.6,10.7l-14.5,14.9l-13.6,18.1l-11.3,16.5l-13.9,26.5l-5.2,12.9l-3.2,11l-2.3,9l-1.6,12.9l-1,12l1,11.6
		l1,11.3l2.9,13.6l19.4,61.1l2.3,13.2l0.3,9l-1,12.9l-3.6,14.9l-2.3,6.1l-2.9,5.8l-13.9,24.2l-11.3,17.1l-9.7,12.3l-22.6,24.6
		l-14.9,12.3l-26.5,18.1l-7.4,6.1l-12.9,14.9l-3.6,5.5l-3.6,8.4l-2.6,8.7l-1.6,7.1l-0.6,5.8l-0.3,7.1l1.6,23.3 M85.3,392.2l-3.2,8.4
		l-3.2,5.8l-2.9,3.9l-5.2,6.1l-5.5,5.2l-8.1,5.8l-3.9,1.9l-32.6,12 M279.2,312.4l4.8,0.6 M172.9,418.1l-3.6-1.6 M139.9,465.6
		l24.6,7.4 M90.8,375.8l-5.5,16.5 M143.5,389l-0.6-3.9 M301.8,299.5l-1.9-4.5l-1.6-4.5 M142.2,459.8l24.2,8.4 M60.1,372.5l1.9,4.2
		 M93.7,376.7l-5.5,16.8 M297.9,300.5l-3.6-9 M165.1,430.4L159,430 M559,602.3l22.3-41.7 M-44.5,282.7l4.5,2.3l3.9,4.2l1.3,2.3
		l1,2.6l0.6,5.5l1.3,5.8l9,24.2l4.8,10.7l1.3,4.2l5.2,5.2l4.2,2.9l3.9,1.9l13.9,0.6l3.2,0.6l11.3,4.5l3.2,0.6h12.3l3.2,0.3l3.9,1.6
		l10,4.8l2.6,4.8 M20.7,358.6l4.2,1.6l3.2,0.6h12.3l3.2,0.3l3.9,1.6l10,4.8l2.6,4.8 M498.3,112.8l-7.8,15.8l-0.3,3.2l2.6,9l2.9,7.1
		l2.9,5.2l3.6,3.6l6.1,4.5l15.5,10.3l7.8,4.8l5.2,2.6l5.2,1.9l28.1,5.8l2.9,1l3.2,1.3l16.5,10l12.9,7.1 M616.2,206.1l2.6-0.6h2.6
		l1.9,0.3l1.3,0.3 M513.8,164.8l10,6.8l7.8,4.8l5.2,2.6l5.2,1.9l28.1,5.8l2.9,1l3.2,1.3l16.5,10l13.6,7.4l2.6,0.6l1.9,0.3l1.9-0.3
		l3.6-1l2.6-0.6h2.6l1.9,0.3l4.8,1.3l17.1,9.7l1,1l1.3,2.6v3.6l-0.6,2.3l-1.9,4.8l-2.3,4.2l-1.9,9l-5.8,13.2l-2.6,4.8l-3.6,5.5
		l-16.2,21.3l-3.9,7.1l-3.2,7.1l-5.2,14.9l-4.2,10.7l-4.2,9.7l-6.5,9.7l-12.6,18.1l-4.8,8.1l-1.9,4.5l-2.3,5.5l-4.2,13.2l-3.2,6.1
		 M585.2,411.3l23.3-42 M595.5,361.9l12.9,7.4 M613.3,360.6l-12.9-7.1 M668.5,457.5l-83.4-46.2 M521.2,526.7l83,46.8 M526,517.9
		l-12.6-7.1 M508.6,519.5l12.6,7.1 M667.9,231.7l-95.6,172.5L458.2,611.3 M481.1,569.6l12.3,7.1 M581.6,614.9L498.3,568
		 M576.8,426.5l83,46.5 M498.3,568l22.9-41.4 M636.9,514.4l-83.4-45.9 M553.5,468.5l-12.9-7.1 M498.3,568l-12.9-6.1 M549,476.6
		l4.5-8.1 M549,476.6l82.7,47.2 M470.5,618.1l22.9-41.4 M576.8,426.5l8.4-15.2 M536.1,469.5l12.9,7.1 M526,517.9l22.9-41.4
		 M493.4,576.7l4.8-8.7 M521.2,526.7l4.8-8.7 M585.2,411.3l-12.9-7.1 M553.5,468.5l23.3-42 M493.4,576.7l83.4,46.8 M609.4,564.5
		L526,517.9 M563.8,419.4l12.9,7.1 M193.6,401.9l-7.4-9.4 M133.8,721.5l-5.2-6.5l-2.6-5.8l-0.6-6.1v-4.2l1.3-7.8l3.9-14.2l8.4-19.7
		l1.6-7.8l2.3-20.7l1-4.8l1.3-4.8l2.9-6.8l6.1-12.3l2.3-7.4l0.6-6.5l-0.3-4.8l-2.3-7.4l-1.3-2.6l-6.1-7.4l-8.4-8.4l-3.6-4.8
		l-3.6-7.4l-2.6-9.4V527l0.3-4.2l1.9-10.3l2.9-9.7l2.3-5.8l2.3-4.2 M533.8,399l-1.3,2.3 M535.7,395.8l-1.9,3.2 M458.2,611.3l-9-5.8
		l-15.8-12l-1.6-1.3l-1.6-2.6l-4.5-8.1 M498.3,112.8L581,159l75,41l0.6,1.3l0.3,1.6l-0.6,3.2 M591.6,164.8l64.3,35.2l0.6,1.3
		l0.3,1.6l-1.3,6.1l-0.3,3.2l0.3,2.6l0.6,2.9l1.9,4.2l2.9,2.9l2.3,1.6l2.3,2.3l2.3,2.9 M604.2,573.5l-22.6,41.4 M166.4,468.2
		l7.4,0.6l14.5-0.6l7.1-1.6l13.6-5.2l10.7-5.5l19.7-13.6l17.4-14.2l16.2-13.9l7.4-5.8l4.2-2.6l5.5-2.3l7.1-1.6l6.5-1h5.8l7.1,1
		l8.7,1.9l28.4,9 M235.6,237.8l-0.3,6.5l-0.6,5.2l-2.9,8.4l-2.6,6.8l-1.3,2.9l-7.8,12l-7.8,10.3l-4.8,5.5l-5.5,5.8l-6.1,5.2l-11,8.4
		l-11,6.1l-9.4,4.2l-25.5,8.1l-10.3,3.9l-7.1,3.9l-5.2,3.9l-5.5,4.5l-3.9,4.2l-4.8,6.5l-3.6,5.2l-1.9,3.9l-2.9,7.8 M220.7,179
		l3.9,14.2l4.8,9.7l1.3,3.2 M220.7,179l3.9,14.2l4.8,9.7l2.3,5.5l2.3,8.4l1.3,6.5l0.3,4.8l0.3,4.8l-0.3,4.8 M235.6,237.8h4.8
		 M227.8,238.8l4.2-0.6l3.6-0.3 M326.4,561.5l10.7-1 M62.1,427.8l-7.8,4.5l-35.2,13.6L0.1,454l-15.2,8.1l-6.8,4.5l-17.4,15.8l-9,10
		l-8.7,12.3l-3.9,6.8l-20,38.4l-7.8,17.8l-13.2,33.9l-5.5,14.5l-1.9,4.8l-5.5,11l-8.1,12.9l-5.5,7.8l-5.8,6.8l-6.1,6.5l-13.6,10.7
		l-28.4,15.8l-8.1,7.1l-7.1,9l-5.2,8.7l-2.9,5.5l-2.6,8.1l-1.9,7.1l-0.6,6.1l-0.6,10.7l1,11.3l2.6,22.9v5.2l-1,10l-1.6,6.1l-2.9,9.4
		l-3.9,8.7l-3.2,5.2l-4.5,5.2l-4.2,4.5l-4.8,4.2l-6.1,4.2l-6.8,3.9l-58.2,24.2l-10.3,6.1l-18.4,13.2l-10.7,9l-15.2,15.8l-11.6,14.5
		l-13.9,20.4l-11.3,20.4l-4.8,10l-3.9,10l-2.6,10l-2.6,12.9l-1.3,11l-0.3,9l0.6,10.3l1,9l2.6,12l3.2,11.3l9,29.7l7.1,21.6l2.3,9.7
		l1,8.4v7.4l-0.6,8.4l-2.6,14.2l-1.9,5.8l-5.2,12.6l-7.1,14.5l-7.4,12l-16.2,21.6l-14.2,17.1l-12.9,12.9l-10.7,10.3l-10,7.1
		l-15.2,9.7l-8.7,6.1l-6.1,6.5l-7.8,9l-5.2,7.4l-5.2,10.7l-2.6,8.4l-1.3,7.8l-0.3,7.1l1.3,24.9 M78.2,413.6l-3.9,4.5l-4.5,4.8
		l-5.8,3.9l-9.7,5.5l-33.6,12.9 M88.3,393.5l-1.3,3.9l-2.6,6.1 M84.4,403.6l-2.9,5.2l-3.2,4.8 M344.8,206.1l4.5-5.8l10-18.1l12-25.2
		l4.5-14.2l2.6-10l1.9-12.9l-0.6-14.2l-3.6-9.4l-6.8-11l-20-22.3l-16.2-13.2 M294.4,291.4l-1-4.8v-8.7l2.3-8.4l3.2-6.1l11-14.5
		l13.6-15.8l14.9-18.4l11-14.2l10-18.1l8.4-17.4 M335.7,542.5h5.2 M176.8,217.5l8.1,5.5l1.9,1.6l3.2,3.2l6.8,9.4l1.6,1.6l1.6,1.6
		l2.3,1l4.5,1.3l3.9,0.3l6.1-1.3l11-2.9 M56.6,161.2l-3.6,2.6l-0.6,6.5l-5.5,14.2l-0.6,2.9 M53,164.8l-0.6,5.5l-5.5,14.2l-0.6,2.9
		 M582.9,193.2l-7.8,5.8l-11-2.9l1-4.8 M317,266.9l0.3-6.1l0.6-2.3l1-2.9l1.3-2.6 M148,405.8l-1-3.6v-4.8 M255.6,352.5l-1.6-3.2
		l-2.6-3.9l-0.3-1l-0.6-2.6l1-9.4 M305,294.4l5.8-2.3l2.3-1.6l2.3-2.3l1-2.3l0.6-4.2l0.3-5.2l-0.3-9.7 M240.4,237.8l3.9-4.2
		 M270.8,313.7l1.9-2.6l1.3-3.2 M353.5,216.5l5.5-4.2l2.9-1.9l8.4-3.2l1.6-1l1.6-1.3l1-1.3l1.3-2.3 M266.9,347l1,1.6l0.6,1v1v2.6
		l-1,4.5l0.3,6.8l0.6,1.9l0.6,1l1.6,1.6l1,0.3h0.6l2.6-1.6l0.3-0.6l0.3-2.9l0.6-1.3l3.9-4.8l1.9-1.3l3.9,0.3l2.9-1.3l5.5-1.9l4.8-1
		l1.9-0.3h15.2l9,2.6h3.6l2.6-1 M260.8,382.9l1.9-6.5l1.3-3.6l1.6-1.9l3.9-3.2 M173.9,418.4l-2.3,4.5l-1.6,1.9l-2.9,3.6l-1.9,1.9
		 M454.3,250.4l2.3,0.6l5.5,3.9l4.8,2.6l2.3,0.6 M273.4,314.7l3.6-2.3l1.6-0.3 M294.4,206.1l1.3-1.9l4.5-6.5l2.6-2.9l9-8.7l2.9-3.2
		l1.3-7.8l0.3-2.3v-2.6l0.3-2.6l2.6-2.6l0.3-1.3l0.3-1.3l-1-8.7l-0.6-1.9l-1.9-3.6l-0.3-2.9l0.3-1l0.6-1l2.3-1 M242,235.9l8.4-1.3
		l7.8-2.3l13.6-3.9l6.5-2.6l4.2-3.6l4.8-5.2l8.4-12.9l4.5-6.5l2.6-2.9l9-8.7l2.9-3.2l1.3-7.8l0.3-2.3v-2.6l0.3-2.6l2.6-2.6v-0.3
		 M245.6,313.1l2.3,1l1.3,0.6 M154.2,436.8l3.9-6.1l1-0.6 M307.6,327.6l0.6-3.2l5.8-12.9 M60.5,200.3l-10-2.6 M250.4,316l2.6,2.9
		l0.6,1 M224.6,372.9l6.5,2.9l4.5,0.3l2.6-0.3h1.6l1.3,0.6l1,1l2.6,3.2l3.9,9.7l0.6,2.3l0.6,2.6l-0.3,9.4l-1.3,10 M46.3,218.4
		l-3.9-3.6l-9-5.2l0.6-1 M46.3,218.4l-3.9-3.6l-9-5.2l0.6-1 M323.1,377.4l-2.3,2.6l-4.2,22 M261.8,266.2l-2.6,7.8l-2.3,5.5l-1,2.9
		l-1,8.1l-2.3,7.1l-0.6,1.3l-5.5,5.5l-1,1.6l-0.3,2.3l0.3,4.8 M226.2,307l5.8,3.9 M262.7,318.6l2.9,1.9l1.6,0.3l1.6-0.3l1.9-1
		l0.3-0.6l-0.3-5.2 M350.6,219.1l2.9-2.6 M357.4,308.2l-4.5-1.6l-5.2-2.6l-3.2-1.9l-2.3-1l-3.6-1l-9.7-0.3l-1.6-0.3l-1.6-0.6l-1.3-1
		l-5.2-4.8l-3.9-4.8 M572.2,198.4l-1.3,8.1 M226.2,371.2l-6.8-5.5 M330.2,330.9l1.3,3.6 M151.3,440.1l1.6-1.9 M249.2,314.7l1.3,1.3
		 M152.9,438.1l1.3-1.3 M232,310.8l2.3,1.3 M449.8,243.3l1-2.3 M278.2,225.9l0.3,10.3l-0.6,2.6l-8.4,18.7l-4.2,7.4l-4.5,1.6l-10,3.6
		l-6.5,1.6h-7.4 M271.1,314.7h2.3 M469.2,258.2l5.2,1.6 M248.2,414.5l10,12.6 M565.1,191.3l0.3-1.3 M331.5,334.4l1.6,5.8
		 M118.9,444.3l4.2-4.8l4.5-3.9l5.2-3.6l1.3-1.3l1.3-1.6l2.9-4.8l2.6-6.8l2.9-11.6 M244.3,233.6l1.3-2.3l0.3-1.9l-1-7.8l0.3-1.9
		l1-3.2l1.3-1.9l1.6-1.3l5.5-3.2l4.5-2.9 M269.5,257.5l1.6,1l1,1.9l0.3,1.9l-0.3,1.6l-1.3,1.3l-1,0.6h-1h-1l-0.6-0.6l-1.9-0.3
		 M320.2,253l3.6-4.5l8.4-7.4l8.1-9.4l3.9-6.1l3.2-3.6l3.2-2.9 M139.3,402.6l2.3,2.3l1.6,1l2.6,0.3l3.9-0.3l5.2,0.6 M254.3,154.8
		l1.9,2.9l3.2,6.5l2.6,6.8l1.3,3.2l1.6,3.9l1.3,1.6l2.6,2.3l4.8,3.6l2.6,1.6 M259.8,164.8l2.3,6.1l1.3,3.2l1.6,3.9l1.3,1.6l2.6,2.3
		l4.8,3.6l2.6,1.6 M274,307.9l0.6-2.3l6.1-9.4l3.6-4.2l6.5-5.5h7.1 M234.3,312.1l2.9,1.6l2.6,0.3l1.9,0.3l3.9-1.3 M278.6,312.1
		l-0.6-1l-2.6-1.6l-1.3-1.6 M20.4,206.1l0.3-1l4.8-11l2.9-5.2l9.7-11.3l9-9l1.3-1.3l4.5-3.6 M20.7,205.2l4.8-11l2.9-5.2l9.7-11.3
		l9-9l1.3-1.3l4.5-3.6 M12.7,221.7l8.1-16.5l4.8-11l2.9-5.2l9.7-11.3l9-9l1.3-1.3l3.2-2.6 M20.7,205.2l4.8-11l2.9-5.2l9.7-11.3l9-9
		l1.3-1.3l3.2-2.6 M328,355.1l-1,5.8l-4.2,6.5l0.3,10l17.8,5.2 M275.3,366.7l2.6,0.3l1,0.6l1,1.3l0.6,1.6v1.3l-0.3,1.9l-1.3,4.2v6.1
		 M294.1,402.6l-7.8-13.2l-3.2-2.9l-2.6-1.6l-2.9-1l-4.5-0.6l-9.4-0.3l-18.1,0.3 M293.7,299.2l11.3-4.8 M413.9,590.9l-2.9,2.9
		 M423.3,583.5l2.3-1.9l-1.6-3.9 M55.9,159.9l3.2,13.6l1.9,5.5l1.6,2.9l5.5,6.5 M57.2,164.8l1.9,8.7l1.9,5.5l1.6,2.9l5.5,6.5
		 M66.3,345.1l8.1-7.1l1.9-1 M66.6,391.9l1.9-2.3l1.9-2.3l2.3-1.3 M105.4,302.1l2.6-8.4 M53.4,395.5l2.9,1l3.6,0.6l2.6-0.3l1.6-1
		l2.6-3.9 M-15.5,286.9l2.3-0.3l1.9,0.3l6.8,2.3l10,2.9l3.9,1H13l6.1-0.6l3.2-1l1.6-0.6l2.9-2.3l2.6-3.9l2.9-8.1l1.6-6.1l0.3-3.2
		L34,243l0.3-2.9l1.9-8.1l4.2-7.4l1.9-2.9l2.6-2.6l2.9-1.6l2.9-1.3l9-1.9 M20.7,292.1l1.6-0.6l1.6-0.6l2.9-2.3l2.6-3.9l2.9-8.1
		l1.6-6.1l0.3-3.2L34,243l0.3-2.9l1.9-8.1l4.2-7.4l1.9-2.9l2.6-2.6l2.9-1.6l2.9-1.3l9-1.9 M138,485l1.3,2.9v1.3v1l-0.3,1.6l-0.3,1
		 M169.3,416.5l-5.5-2.6l-2.9-0.3l0.3,3.2l-0.3,2.3l-0.6,1.9l-2.3,3.9l-4.2,5.5l-2.6,3.2l-0.6,1.6l-0.3,1.6l1,3.2 M166.8,502.1
		l9-1.6l15.2-3.6l-1.9-3.9l-0.3-3.9l0.3-9.4l-0.6-1.9l-1-2.9 M374.5,435.9l4.2-12.6v-7.1l-7.4-4.2l-17.4,1 M284,313.1l3.2-1.3
		 M563.5,410l4.2,2.3 M526.7,471.7l1.9,1 M524.7,470.4l1.9,1.3 M389.4,150.6l-6.8,12.9l-1.6,4.2l-2.6,8.1l-0.6,3.6l-1.9,22
		 M381.9,164.8l-1,2.9l-2.6,8.1l-0.6,3.6l-1.9,22 M409.1,252.3l-4.5,0.3l-1.3,0.3l-1.6,1.3l-4.8,6.8l-4.2,4.5l-4.5,3.9l-5.5,3.6
		l-6.5,3.2l-3.6,1.3l-6.5,1.3h-2.6 M401,235.9l-0.3,1.3l0.6,2.6 M408.1,246.5l1,2.3 M406.8,244.9l1.3,1.6 M409.1,248.8l0.3,1.6
		 M401.3,239.7l1.3,1.3 M401.3,234.6l-0.3,1.3 M402.6,241l4.2,3.9 M538,424.6l5.8,3.6 M529.6,452.3L495,433.6 M528.6,472.7l4.2,2.6
		 M460.1,486.3l-5.5,10.7l-1,3.2L453,504v3.9l1,4.5l2.3,4.8l2.9,3.9l2.6,1.9l3.2,2.3l3.6,1.3l2.9,0.6l4.5,0.3l5.5-0.3l4.5-1.9
		l3.6-2.6l2.6-2.6l2.9-4.2l13.9-24.9l-39.1-22 M469.5,508.6l-13.9,7.4 M475.6,512.1l-0.6,15.5 M474.3,535.4l4.2-2.9l2.3-2.6l0.6-2.6
		 M520.5,468.2l4.2,2.3 M469.8,501.4l-1,1.9v1.3l0.3,2.9l0.6,1.3l1,1.3l2.3,1.3l1.3,0.3l1.9,0.3l2.3-0.6l1.3-1.3l5.8-9.7l-12-6.5
		L469.8,501.4 M460.8,464l-3.6,6.5 M469.8,469.1l-9-5.2 M477.3,501.1l2.3-3.9 M507.6,424.2l6.1-2.9 M526.4,412l2.6-4.8 M533.5,412.9
		l6.1-2.6 M527,419.1l4.5,2.9 M518,427.5l2.6-4.8 M515.4,412.6l4.8,2.9 M525.4,427.8l1.3,6.8 M520.5,400l1.3,6.8 M460.1,486.3
		l0.3-1.6l-1-6.8l-2.3-7.4l-5.5-3.2 M20.7,1363.4l6.1-10.7l169.3-306.9l11-22.6l5.8-13.9l2.3-8.7l1.3-9.4l0.3-13.2l-0.3-10
		l-2.9-21.6l1-14.2l1-6.8l1.9-8.1l4.2-14.9l1.9-9.4l1-9v-6.1l-0.6-6.8l-2.9-14.5l-2.9-7.1l-3.6-6.5l-11-16.2l-5.2-6.5l-3.2-5.5
		l-1.3-5.2l-0.6-5.8v-9.7l1.9-17.1l1-5.5l3.6-11l5.5-12.3l12.6-24.2l16.2-28.1l13.9-18.7l17.8-21.6l38.1-40.1l18.1-20l10-13.6
		l3.6-6.8l1.3-6.1l0.3-8.4l-1.3-18.1l-2.3-13.6l-1.3-11.6l1-20l10.7-65.6l1.9-9.4l3.2-11l4.8-12l11-18.1l15.5-14.9l12-8.7l11.6-6.8
		l11-5.2l13.2-8.4l5.2-6.1l2.9-5.8l1.3-6.8v-8.4l-3.6-10l-4.2-5.8l-6.8-6.1l-6.1-2.6l-7.8-2.3l-10.3,0.3l-11.3,2.6l-11.6,6.1
		l-12.3,9.7l-6.1,6.1l-6.8,5.5l-8.7,4.2l-7.4,1.6h-9l-7.4-1.9l-5.8-2.3l-4.8-3.2l-4.8-4.2l-4.5-7.4 M325.1,425.8l9-14.9
		 M461.1,497.2l-1,1.6l-0.6,2.6l-0.3,2.9v2.9l0.6,3.2l1.6,3.6l2.3,2.9l1.6,1.3l2.3,1.6l4.8,1.3l3.9,0.6l3.6-0.6l3.2-1.3l2.6-1.6
		l1.6-1.9l2.6-3.2l8.7-16.2l-28.4-15.8L461.1,497.2 M556.4,403.9l-12.6,24.2l-18.1,31l-13.9,24.6l-2.9,7.4 M473.7,440.7l4.5-7.8
		 M478.2,433l47.5,26.2 M373.5,413.2l5.8-15.5l9.7-6.8l4.8-11.3l15.5-6.8l10-5.5l8.7-7.8l13.2-14.5l8.1-12.9l5.5-14.2 M460.5,319.2
		l7.1,14.9 M477.3,501.1l-1.3-0.3l-1.3,0.6l-1.6,2.6v1v0.6l0.6,1.3l0.6,0.3h1.6l1.3-1l1.3-2.9v-0.6l-0.6-1.3L477.3,501.1
		 M278.6,312.1l0.6,0.3 M142.9,385.1l-0.3-3.6l0.3-1.6l1.9-3.2l1.9-1.9l7.1-4.2l16.8-11l2.3-1.3l6.1-2.3l10-1.3l5.5-1.9l11.6-8.4
		l3.2-2.6l3.2-2.6l3.6-2.3 M565.5,190l1.6-8.7l0.3-1.9l1.3-2.9l1.6-1.9l2.6-3.2l2.9-3.9l5.2-8.4 M565.5,190l1.6-8.7l0.3-1.9l1.3-2.9
		l1.6-1.9l2.6-3.2l2.9-3.9l1.6-2.6 M333.2,340.2v4.5l-1.6,7.1v3.6l0.3,3.2l1,2.3l1,1.6l1.6,1.6l6.8,6.1l2.9,1.3l5.2,1l3.9-2.3
		l6.1-4.5l2.9-2.9l3.6-4.2l2.3-4.5l1.3-1.3l2.9-1.3l3.9-2.9l1.3-1.6l5.8-8.7l2.3-2.3l2.9-1.9l2.3-1.3l2.6-0.6l1.6-0.3h1.6l2.6,1
		l3.6,3.6l0.6,0.3l0.6,0.3l5.2-1.3l5.8-3.2l6.1-1.9 M521.2,303.7l1-3.6l1.3-2.6l2.6-3.2l1.6-2.9l1.9-5.5l0.3-5.2l0.3-5.2l-0.3-4.5
		l-1.6-5.8l-1.3-3.6l-1.3-2.9l-2.9-3.9l-1.6-1.3l-2.6-1l-2.3-0.6h-1.9l-6.1,0.6h-2.9l-1.9-0.3l-2.3-1l-1.6-1.3l-2.9-5.8l-0.3-1.9
		l0.3-1.3l9.7-9.4l1.9-2.3l1.3-2.3l0.6-2.3l0.6-2.6v-3.9v-1.9l-1.9-4.8l-2.6-3.9l-3.6-3.9l-1.9-1.3l-2.6-1l-2.9-0.6l-4.5-0.3
		l-6.8,0.6l-5.5,0.6l-5.2,1.3l-3.2,1.3l-7.4,3.9l-10.3,6.8l-4.5,2.6l-6.1,2.6l-4.8,1.3l-7.1,1.6l-7.8,0.6l-3.6,0.3l-3.6,2.9
		 M72.7,386.1l2.3-0.6l2.9-0.3l3.9,0.3l8.7,0.6l6.8,1.3l26.8,12.9l2.9,1l3.6,0.6l8.7,0.6l0.6-2.9l1.3-3.9l1-1.9l1.6-1.9l-0.3-2.9
		 M164.5,473l6.1,1.6l8.7,1l6.1-0.6l5.8-0.6l5.8-1.6l14.9-5.5l14.9-8.4l13.2-8.7l12.9-10l20.7-18.4l7.1-6.1l6.8-5.2l4.5-1.9l7.8-1.9
		h2.6l5.5,1l4.2,2.6l3.6,2.9l2.9,3.2l2.9,3.6l3.6,6.1l6.5,16.2l1.6,5.8l1,3.9v5.5l-1,5.5l-3.9,11l-5.2,9.7l-2.6,5.8l-1.9,7.4
		l-1.3,11.3v9.7l1,11l1.6,9.4l3.2,12.3l2.3,11.3l0.3,2.6v4.8l-0.6,4.5l-1.3,3.9l-2.9,4.8l-23.6,27.5l-2.3,1.9l-2.9,2.3l-16.8,9.4
		l-7.8,4.8l-4.5,3.6l-5.2,5.8l-3.9,5.8l-2.6,4.5l-3.9,8.4l-6.5,12.3l-6.8,8.4l-10.3,9.7l-7.4,8.7l-4.8,7.8l-3.9,6.8l-6.1,12.9
		l-3.6,8.7l-2.3,7.8l-1.6,9.7l-5.2,36.2l-1,6.1l-1.3,2.9l-0.6,1.6l-3.2,3.2l-1.6,1.3l-5.5,2.3l-3.6,0.6l-6.1,1h-9l-5.8,0.6l-7.4,1.3
		l-6.8,1.6l-3.9,1.6l-1.9,1l-3.6,3.6l-6.5,8.1 M434.9,342.2l-7.8-5.5l-5.2-6.1l-5.2-11l-1.9-3.6l-3.6-4.8l-1.9-1.3l-4.2-2.3l-2.9-1
		l-2.6-0.6h-3.9h-2.3l-2.9,1l-3.9,1.3l-3.9,1.6l-5.2,2.3l-12.3,6.1l-16.2,7.8l-10.7,3.6l-8.4,1.3h-1.9l-4.5-1.6l-6.1-1.3l-4.2-0.6
		L297,328l-4.2-1.3l-2.3-1l-2.6-1.6l-2.6-2.3 M259.2,207.1l3.6-1l4.2-3.6l7.4-11.6l1.9-3.9 M150.6,472.4l-0.3,1.6l-1.3,1l-7.4,1.9
		l-2.6,1.3l-1,0.6l-0.3,1l-0.6,2.3l0.3,1.3l0.6,1.6 M189.7,507.9l1.3-11l4.8-2.6l7.1-4.8l6.8-4.8l8.1-3.6l2.9-1.3l5.2-1.3l4.5-1
		l4.8-0.6l12.3-0.3l5.2-0.3l6.1-1.3l20.4-7.1l5.8-1.3l4.5-0.6h5.2l6.5,1.6l4.2,1.3l2.6,1.6l1.9,2.3l1.6,1.9l1.6,2.6l2.3,8.1l1.6,2.9
		 M434.9,342.2l6.5,2.9 M190.3,206.1l7.8-12.3l1.9-2.6l2.9-3.2l5.5-5.2l5.2-1.9 M133.8,234.3l3.2-1l4.2,1.3l2.9,0.3l3.6,0.3l2.6-0.3
		l6.1-3.2l5.2-3.9l7.1-6.1l8.1-4.2l4.2-2.9l6.1-4.5l2.6-2.9l8.4-13.2l1.9-2.6l2.9-3.2l5.5-5.2l5.2-1.9 M495.7,263.7l5.5-12.3
		 M-85.2,569.6l9-18.4l6.1-11l5.2-7.1l12.3-15.2l8.4-11.3l5.2-7.4l6.1-8.4l6.1-7.1l6.5-5.8l4.5-3.2l5.5-2.9l9-3.2l6.8-1.9l8.4-1.3
		h5.2l12.3,1l23.9,2.9l6.8,0.3 M20.7,465.3l10.7,1l23.9,2.9l9.7,0.3l15.5,0.3l5.5-0.3l9-1.3l9-1.3l20.7-2.3l8.7,0.3l6.5,0.6
		 M409.4,250.4l-0.3,1.9l5.5,1l3.2,0.3l2.6-0.3l2.6-1.3l3.9-3.2l2.6-1.3l4.5-1h2.9l2.3-0.3l2.3-0.6l2.6-1l2.3-1.3l1.9-0.3l1.6,0.3
		l2.9,2.9l1.6,4.2l-0.6,7.4l-3.6,13.9l-1,5.5v4.5l0.6,4.5l1.3,3.6l1.6,3.2l1.3,2.9l1,5.2l0.3,2.9l0.3,3.2l-0.6,10.7l5.5,1.3l3.2-0.6
		l2.9-1l2.3-0.6l1.9-1.3l1.9-2.3l2.3-3.6l6.1-10.7l2.3-2.6l1.9-1l2.3-1 M216.2,337l-0.6-4.5l0.3-4.5l1.3-7.4l2.6-5.5l2.3-3.6
		l1.9-2.3l2.3-2.3l0.3-1.6v-3.2l-0.6-5.8l0.3-4.5l1.3-2.3l1.6-2.6l4.2-5.5l2.3-4.2l1.3-5.5l0.6-6.5l1.9-6.8l3.9-9.7l0.6-2.3l0.3-1.6
		L244,243l-1.3-2.6l-2.3-2.6 M285.3,321.8l-1.3,1.6l-1.9,3.2l-3.6,7.1L276,338l-2.3,3.2l-3.2,3.2l-2.6,1.9l-5.2,2.9l-12.3,5.8
		l-3.2,1.6l-12.9,7.8l-3.9,2.9l-7.1,6.5l-14.5,15.8l-4.5,4.5l-5.2,4.2l-3.2,2.3l-11.6,6.1l-2.3,1.6l-3.9,3.6l-1.9,2.6l-2.3,3.9
		l-1-0.3 M447.9,235.9l-1.9-1.9l-1.9-1.3l-1.9-1l-6.8-1.6l-13.6-0.6l-4.2-1.3l-2.6-1l-13.2,1 M143.8,391.9l2.6,3.2l0.6,1v1.3l4.5,1
		l2.9,0.6l1,0.6l0.3,0.6v1.3l-1,4.8l5.5,5.8l0.6,1.3 M350.3,372.5l-6.8,6.5l-2.3,2.9l-3.6,6.5l-4.5,7.1l-2.6,5.2l3.2,5.8l0.3,4.5
		l9.4,7.8l2.3,3.6 M323.5,38.5l-9-4.8l-5.2-2.9l-6.1-3.2l-11.3-4.8l-9-3.6L266,14.6l-18.1-4.2l-14.2-1.6l-16.2-1.6l-6.1-1l-6.5-1.6
		l-5.5-1.9l-9-3.9l-4.5-1.6l-3.9-0.6l-3.9-0.3h-3.9l-4.2,1l-5.8,1.6l-5.8,2.6l-3.9,2.3l-4.8,3.6l-6.8,7.4l-2.9,3.9l-4.8,8.1
		l-4.2,9.7L129,43l-0.6,5.2l-0.6,6.5v4.5L128,63l1.6,5.5l1.9,6.1l2.9,5.2l2.9,4.5l3.2,3.9l2.9,2.6l3.9,2.9l3.6,1.9l4.2,1.9l30.4,9.4
		l10,3.9l4.8,3.9l4.5,4.2l3.9,4.2l2.6,4.2l4.2,8.4l2.3,7.8l0.6,7.8l-1.6,15.2l0.3,8.4l0.6,4.8l0.3,3.2l1,4.2l3.6,11l4.2,8.1
		 M217.2,164.8l-0.3,1.6l0.3,8.4l0.6,4.8l0.3,3.2l1,4.2l3.6,11l5.2,10l2.6,8.7l1.6,12.3l0.3,4.8l-0.6,10l-1.3,6.5l-1.3,4.8l-2.3,6.1
		l-3.9,8.1l-3.6,6.1l-12.9,15.8l-5.8,5.8l-7.1,6.1l-5.2,3.9l-7.1,4.5l-8.7,5.2l-10,4.5l-13.2,4.8l-20.4,6.5l-5.2,2.6l-10.7,7.1
		l-6.8,6.1l-9.4,12l-3.2,6.8l-2.9,8.4 M198.1,785.4l1.3-6.8l1.3-4.8l1.6-5.5l2.3-5.8l9-19.4l8.4-16.5l9-15.8l7.4-11.6l7.4-11
		l22.3-27.8l19.1-21l19.4-19.7L326,599l4.8-6.1l4.2-6.5l4.5-9.7l1.6-5.2l0.6-4.5l0.6-6.5v-5.8l-1.6-12.3l-2.9-14.9l-1-6.8l-0.3-8.1
		l0.3-6.1l1-7.4l10.3-64l2.6-11.6l2.9-10.7l2.3-5.8l2.6-5.5l2.9-4.8l3.9-5.8l5.2-6.5l11.3-12l5.8-4.8l7.4-5.2l7.4-4.8l9.7-4.8l9-4.2
		l5.2-2.6l3.6-3.2l5.2-5.5l1.9-3.2l3.2-7.4l1.3-4.2l0.6-3.9v-4.2l-0.3-4.5l-1-4.2l-1.6-4.2l-1.9-3.9l-2.9-3.9l-3.6-4.2l-3.9-3.6
		l-4.5-2.6l-4.8-1.9l-3.9-1.3l-5.8-0.6h-5.5l-10.7,1.3l-5.8,1.9l-6.1,2.9l-6.1,3.2l-5.8,4.2l-5.2,4.2L349,309.9l-3.6,2.3l-4.2,1.9
		l-4.8,1.6l-4.8,0.3l-4.5-0.3l-5.2-1l-3.9-1.3l-3.9-1.9l-3.6-2.6L307,306l-2.9-3.2l-2.3-3.2 M9.4,293.1l1.6,1.3l3.9,1.6l5.8,1
		l6.1-0.3l8.1-1.6l5.8-1.6l5.2-2.6l4.2-2.3l5.8-5.2l3.9-4.5l2.3-4.2 M20.7,296.9l6.1-0.3l8.1-1.6l5.8-1.6l5.2-2.6l4.2-2.3l5.8-5.2
		l3.9-4.5l3.2-5.8l3.9-9.4l2.3-3.2l1-0.6h1l4.8,0.3l1.6-0.3l1-0.6l0.6-1.3l1-1.3l1.3-4.5l1.3-4.8l1-7.4 M57.6,367.7l1.6-11.3l1-2.9
		l2.6-3.9l3.6-4.5h4.2l2.3-1l1.6-1.3l1-1l1-3.2V337l5.5-2.9l9.4-8.4l8.7-10.7l2.3-3.9l1.6-3.9l1.6-5.2l1.3-0.6l1.6-1.3l0.6-1.6v-1.9
		l-1-2.9l1.6-3.9l1-1.3l1-1l4.5-1.6l2.9-0.3l9,0.3h3.2l3.2-1l2.3-0.6l3.2-1.9l1.6-1.6l1-1.6l1.6-3.6l1.3-3.9l0.3-3.2l-1.6-3.9
		l-2.3-3.2l-8.1-7.1l-1-1.3l-0.6-1.9l-0.6-2.6v-3.2l2.3-11l-3.9-1.6 M68.9,488.5v-6.1L65,469.5l-1.9-7.1l-6.8-21.6l-3.6-13.9v-4.2
		l0.6-6.1l1.9-9v-2.6l-0.6-5.5l-1.3-3.9 M350.3,206.1l4.5-6.8l9-14.9 M298.3,290.5l-0.3-3.9l0.3-7.8l1-3.9l1.6-4.8l2.3-3.9l4.8-6.8
		l32.6-39.4l4.5-6.1l9.7-14.5l9-14.9 M548,420v-6.1l-1.3-6.1l-2.3-4.8l-3.2-5.5 M216.2,337l3.9-1.6l13.6-8.1l3.6-2.3l5.2-2.3
		l3.6-1.3l7.8-1.6l4.5,0.3l1.6-0.3l9.7-4.5l1.6-0.6 M189.7,507.9l-5.8,0.6l-5.5-0.3l-6.1-2.9l-5.5-3.2l-14.9-5.8l-9.7-3.2l-3.6-0.3
		 M62.1,486.6l-2.6-0.6l-10.7-3.2l-14.2-5.2L22,472.7l-3.6-0.6l-7.8-0.3l-6.1,0.6l-8.4,3.2l-8.4,3.9l-8.7,6.5l-3.9,3.9l-3.6,4.5
		l-4.2,5.5l-6.1,9.7l-7.4,16.5l1.3,7.8l0.3,8.7l-0.6,8.7l-1.6,10l-1.6,7.1l1.9,7.1l1.6,10.7l4.8,9.7l2.6,5.2l3.2,5.8l4.2,6.5l9,18.4
		l2.9,8.1l3.9,13.6l1.3,9 M138.7,492.7l-6.8-0.3h-6.5l-20.7,1.9L94.4,494l-6.8-1.3l-7.1-1.3l-21-5.5l-10.7-3.2l-14.2-5.2L22,472.7
		l-1.3-0.3 M151.3,440.1l3.9,8.4l0.6,4.5l-0.6,4.2l-4.5,15.2 M317,488.2l4.5,1.6 M53.4,395.5h-2.9l-13.6,1.6l-3.2,0.6l-6.5,2.6
		l-2.3,1.3l-2.9,1.6l-5.8,5.5l-4.2,4.8l-3.6,2.6l-2.6,1.3l-2.9,1l-2.9,0.3l-6.8-1l-3.2-0.6l-6.8-2.3l-2.3-0.3l-2.6,0.3l-1.9,1
		l-8.7,8.7 M53.4,395.5h-2.9l-13.6,1.6l-3.2,0.6l-6.5,2.6l-2.3,1.3l-2.9,1.6l-1.3,1.3 M375.8,201.3l1,3.9l1,1.3l1.9,1.3l5.2,1.3
		l3.9,1.9l2.3,1.3l3.9,4.2l4.5,6.8l2.3,4.8l-0.3,6.5 M321.5,489.8l3.2,0.6l2.9,1.3l2.3,1.6l3.2,3.9l3.9,9.4l2.9,0.3l6.8,1.6l7.1,1
		l16.8-0.3 M276.3,187.1l1-2.3l3.6-3.6l1.9-4.2l8.7-12.6l3.6-5.8l1.3-1.6l1-0.6l2.9-0.6l1.3-1 M276.3,187.1l1-2.3l3.6-3.6l1.9-4.2
		l8.4-12.3 M285.3,321.8l1.3-3.6l1.3-2.6v-1.9l-0.6-1.9v-4.2l0.3-2.3l1-1.6l2.3-2.6l2.9-1.9 M482.4,506.3L496,514 M472.1,429.4
		l6.1,3.6 M511.8,483.7l-47.5-26.2 M457.9,454l6.5,3.6 M460.8,464l8.1-14.5 M485.7,500.5l6.5-12.3 M444.3,552.2l2.9-2.3l10-1
		l5.8-1.3l5.2-2.3l3.2-2.3l2.3-4.5l0.6-3.2l-1.3-4.8l-1.6-3.2 M425.6,581.6l6.1-4.8l2.3-3.6l2.6-5.5l0.6-6.1l1-2.6l2.9-4.2
		 M465.3,499.2l-1.3,3.2l-0.3,1.9v2.6l0.6,2.3l1,2.3l1.9,2.3l1.9,1.6l1.9,1l2.6,0.6h2.9l2.3-0.3l1.9-0.6l1.6-1.3l1.3-1.3l1.9-2.9
		l6.8-12l-20.7-11.3L465.3,499.2 M456.9,492.4l13.6,7.4 M494.7,483l-2.6,5.2 M420.4,586.1l2.9-2.6 M441.1,554.8l3.2-2.6
		 M397.4,622.6l1.9-2.6l1-2.9l3.2-12.6l1.6-3.6l1.6-2.9l4.2-4.2 M420.4,586.1l-3.2,2.3l-3.2,2.6 M62.1,423.9l-4.8,3.6l-3.9,1.9
		L3.6,447.8l-10,4.2l-17.4,11.6l-13.6,11l-11.3,12l-7.4,10l-8.1,12.9l-12.9,23.6l-7.4,15.8l-8.7,19.7l-17.8,46.5l-4.2,9.7l-2.9,5.2
		l-6.1,10.3l-4.2,6.1l-8.1,10.3l-7.1,7.1l-7.8,6.1l-31,19.1l-8.1,5.8l-7.1,7.4l-5.8,7.8l-4.8,8.4l-3.2,8.4l-2.6,10.3l-1,8.4V757
		l3.6,33.6l-0.3,7.1l-1,6.8l-2.3,8.7l-3.2,8.1l-4.8,8.1l-5.2,7.1l-6.5,6.5l-8.1,5.8l-9,4.8l-33.6,13.6l-25.2,11.6l-14.2,9.4
		l-12.9,8.7l-11.6,10.7l-14.5,14.9l-13.6,18.1l-11.3,16.5l-13.9,26.5l-5.2,12.9l-3.2,11l-2.3,9l-1.6,12.9l-1,12l1,11.6l1,11.3
		l2.9,13.6l19.4,61.1l2.3,13.2l0.3,9l-1,12.9l-3.6,14.9l-2.3,6.1l-2.9,5.8l-13.9,24.2l-11.3,17.1l-9.7,12.3l-22.6,24.6l-14.9,12.3
		l-26.5,18.1l-7.4,6.1l-12.9,14.9l-3.6,5.5l-3.6,8.4l-2.6,8.7l-1.6,7.1l-0.6,5.8l-0.3,7.1l1.6,23.3 M85.3,392.2l-3.2,8.4l-3.2,5.8
		l-2.9,3.9l-5.2,6.1l-5.5,5.2l-8.1,5.8l-3.9,1.9l-32.6,12 M461.7,619.4l-6.1-3.6l-22-12l-2.9-1.6l-4.8-3.2l-2.9-2.6l-15.8-21.3
		L402,569l-6.8-5.8l-2.9-1.9l-6.1-3.2l-4.8-1.9l-4.5-1l-13.9-1.9l-9-2.3l-3.6-1l-1.9-1l-7.4-6.5 M62.1,376.7l1,1.6l0.3,1.6l-0.3,2.9
		l-1,1.9l-1.9,4.2l-6.8,6.5 M519.9,415.5l-1,2.9l0.3,2.6l0.3,0.6l0.6,1l1.9,0.3l1.9-0.3l1.9-1.6l1.9-4.2l0.3-2.3l-0.6-1.3l-0.6-1
		l-1.6-0.6h-1.3l-1,0.3l-1.3,1L519.9,415.5 M505,385.5l-11.6-20.7l-3.6-5.2l-2.9-2.9l-7.1-5.5l-4.5-3.6l-2.6-2.9l-1.6-2.9l-3.6-7.8
		l4.8-3.6l4.8-1.9l4.8-0.6l3.2-1l6.5-4.2l2.6,4.2l1.9,2.6l2.6,2.3l4.2,1.9 M515.4,413.2l-1.9,4.5l0.3,2.9l0.3,1.9l1.3,2.3l1.3,1.6
		l1.3,1l2.6,0.6l1.3,0.3l2.6-0.3l1.6-0.6l2.3-1.3l2.9-3.2l1.3-2.9l1-2.9l0.3-1l-0.3-3.2l-0.6-1.6l-1-1.9l-2.9-2.3l-2.3-0.6l-3.2-0.3
		l-1.6,0.6l-1.9,0.6l-2.6,2.3L515.4,413.2 M505,404.5l-4.8,9.4l-2.6,2.6l-5.8,2.6l-6.1,0.3l-11-6.8 M504.1,407.1l5.2,2.6
		 M343.8,431.7l4.5,3.6l3.2-0.6l5.5,0.6l12.6-0.3l2.6,0.3l4.8,1.6l2.3,2.6l1.3,1.9l1,2.6l5.8,24.9l0.3,3.2v2.3l-1,2.3l-1.9,3.9
		l-2.3,3.6l-6.1,8.1l-3.9,6.8l-1.3,3.9l-1,3.9l0.3,2.6l3.2,7.1l3.9,7.8l6.1,8.4l2.6,2.3l5.5,4.2l4.5,3.2l7.1,3.9l11.3,10l1.3,3.9
		l3.2,7.1l4.5,10.7 M311.8,522.8l12.9,2.3l8.7,3.9 M505,404.5l4.2-5.5l3.9-3.2l2.9-1.6l7.4-1.9l-6.8-1.3l-4.2-1l-7.4-4.5l1,4.5
		l1,4.8v2.3v2.9L505,404.5 M314.1,489.8l2.9-1.6 M414.9,556.1l2.3-5.5l2.3-7.4l4.5-9.7l0.6-2.6 M509.2,410l-1.6,4.2l-1,2.9v3.2
		l1,4.2l1.3,2.9l1,1.6l1,1.3l2.6,1.9l2.6,1.6l5.5,1.3l4.8-0.6l3.9-1.6l2.6-1.6l2.9-3.2l2.3-3.6l1.6-3.9l0.6-1.9l0.3-2.3v-1.9
		l-0.6-3.2l-1-2.6l-1.9-3.6l-1.3-1.3l-2.3-1.9l-2.6-1.3l-4.8-1.3l-3.6,0.3l-3.2,0.6l-2.9,1.6l-2.6,1.9l-1.6,1.6L509.2,410
		 M178.7,747l2.9-13.2l2.6-6.8l10.3-18.7l9-12l17.8-20l8.7-11.6l5.2-9.7l4.5-9l6.8-11.6l2.3-2.6l2.9-2.3l9.7-4.5l7.4-4.2l5.5-4.5
		l7.4-6.8l6.8-7.4l4.8-18.1l2.6-6.5l3.9-5.8l3.6-6.5l2.9-6.8l2.6-7.1l1.6-8.1l1-5.5l0.3-6.1v-8.7l-0.3-12.6l0.3-4.5l0.6-5.8l1.6-3.9
		l0.6-4.2l-0.6-1.9l-5.8,1.3l-6.1,1l-9.7,0.3l-23.6-1.9h-6.8l-5.5,0.3l-5.2,0.6l-3.9,1.3l-3.2,1l-3.9,1.9l-5.5,3.6l-9.7,10.3
		l-5.8,5.8l-2.6,1.9l-4.5,2.6l-4.5,1.3l-3.2-0.3l-5.2-1.3l-2.9-3.2l-6.8-8.4 M149,206.1l0.3-2.6V200l-0.3-4.2l-1.3-7.1l-3.2-6.1
		l-1.9-2.6l-3.6-2.3l-8.1-1.9l-4.2-0.6l-4.8-0.3H116l-5.5,1l-12.6,2.9l-18.1,4.8l-4.8,1.6l-4.5,1.9l-3.6,1.9l-1.6,1.3l-1.6,1.9
		l-1.3,2.6l-1.9,5.5l-0.6,5.8 M144.5,217.1l1.9-4.2l2.3-5.8l0.6-3.6V200l-0.3-4.2l-1.3-7.1l-3.2-6.1l-1.9-2.6l-3.6-2.3l-8.1-1.9
		l-4.2-0.6l-4.8-0.3H116l-5.5,1l-12.6,2.9l-18.1,4.8l-4.8,1.6l-4.5,1.9l-3.6,1.9l-1.6,1.3l-1.6,1.9l-1.3,2.6l-1.9,5.5l-0.6,6.5v7.4
		l1,5.2l1.9,3.2l1.9,3.2l3.2,3.6l3.2,3.6l4.2,3.2l3.6,1.6l4.8,1.9l7.4,1l7.8,0.3l5.5-0.6l4.8-0.6l5.8-1.6l7.8-2.3l7.1-3.2l4.5-3.6
		l6.5-7.1L144.5,217.1 M78.9,406.5l6.5,5.5l13.9,14.2l12.6,12l7.1,6.1l10,7.8l13.2,7.8 M481.8,259.8l-4.2-4.8l-1-1.9l-0.6-3.2
		l0.3-4.5l1.3-4.8l1.3-2.9l1.3-2.3l0.6-2.9l-2.6-5.2l-1.9-2.3l-2.6-1.9l-1.3-0.6l-1.3-0.6h-2.9l-1.6,0.3l-3.9,1.6l-2.6,1.3l-2.6,1.9
		l-9.7,9 M472.1,429.4l-1.6-0.3l-3.6-0.3l-1.6,0.3l-3.6,1l-2.9,1.9l-2.6,2.6l-1,1.3l-1.3,3.2l-0.6,3.6v1.9l0.6,3.6l1,1.6l1.9,2.9
		l1,1.3 M475,449.1l-1.3,1l-1.6,0.3l-1.6-0.3l-1.6-0.6l-1-1.3l-0.6-1.3l-0.3-1.6l0.3-1.6l0.6-1.3l1.3-1l1.3-0.6l1.6-0.3l1.6,0.3
		l1.3,1l1.3,1.3l0.3,1.6v1.6l-0.3,1.6L475,449.1 M474.3,259.8l3.6,0.3l3.9-0.3l3.9,0.3l3.9,1.3l6.1,2.3l3.9,1l4.5-0.3l8.4-2.6h2.6
		l2.6,1.3l0.6,0.6l1.6,2.6l0.3,1.3l-0.3,2.3l-1.3,3.9 M523.5,392.2l15.8,4.5l15.8,5.8l8.4,7.4 M452.7,246.2l2.3-1.9l1.3-0.6l7.4-2.9
		l2.3-2.3 M450.8,241l-2.9-5.2 M516,303.1l5.2,0.6v1.6l0.3,1l1.3,1.6l1.6,1l2.9,0.6l5.8,0.3l3.2,1l1.9,1.3l2.6,2.3l1.9,2.3l2.9,5.5
		l1.6,6.8l0.3,3.2l-0.3,4.5l-0.6,4.5l-2.6,7.4l-2.9,6.8l-2.6,4.2l-2.9,2.9l-6.5,5.2l-14.9,10l-4.8,3.2l-5.5,2.6 M515.7,280.8
		l2.9-7.1 M497.9,294.4l2.6-1l3.9-1.6l5.5-2.9l2.9-2.3l1-1.3l1.9-4.5 M487.3,300.8l0.3-4.2v-1.9l3.6-2.9l1.6-1l4.8-6.1l1-1.6
		l1.6-3.2V274l-1.6-5.5L497,264 M506,300.8l4.5,1.3l5.5,1 M492.8,290.8l5.2,3.6l4.2,3.9l3.9,2.6 M491.8,322.8l-2.6-6.1l-1.6-5.8
		l-0.3-2.9 M487.3,307.9v-7.1 M503.1,333.8l2.9,1 M540.3,391.6l0.6-2.3l-0.3-3.2 M539.3,396.8l1-5.2 M387.8,473l5.8,0.3h2.9l2.6-1
		l9.7-4.5h1.9l2.3,1l2.3,4.2l5.2,16.2l0.6,1.9v2.3l-1,3.6l-3.6,7.1l-0.6,2.3l0.3,6.1l1,1.9l4.8,7.1l1.6,3.9l1,5.5l5.2,2.9l4.5,3.2
		l12.9,12.9 M478.2,433l7.4-13.6"/>
	<path id="road_minor" class="st9" d="M6.8,169.6l-86.6-47.8L-164.1,75l-176.1-97.9l-88.2-49.4l-6.8-3.6l-13.2-7.8l-57.2-31.7
		 M62.1,60.1l-167-92.7l-169-94.7L-418-207.1l-11.6-7.1l-7.8-3.9 M66.3,62.4L20.7,37.2 M-2.9,144.4h1.9l1.6,0.6l1.3,1l1,1.9v1.9
		l-0.6,1.9L1,153.2l-1.6,1h-1.9l-1.6-0.6l-1.6-1.3l-0.6-1.9v-1.9l0.3-1.6l1.6-1.6L-2.9,144.4 M-3.5,93.7L11,66.2 M2.6,151.5l11,5.8
		 M493.4-26.5l58.5,31.3 M551.9,4.9l30.7,15.8L655,60.1l80.1,45.2l7.4,4.8 M713.4,161.2l-35.9-20l-147-83l-43.9-23.9L354.2-39.4
		 M62.1,60.1l-167-92.7l-169-94.7L-418-207.1l-11.6-7.1l-7.8-3.9 M66.3,62.4L20.7,37.2 M20.7-28.4L94.1,12 M494.7,38.5l-0.3,5.8
		l-5.2,9 M585.8,623.3l-96.3-53.6 M517.3,519.2l96,53.6 M641.1,523.1l-96.3-53.6 M543.8,599.7l-2.3,3.9l-7.1,14.9"/>
	<path id="road_secondary_tertiary" class="st10" d="M36.6,116.3l-22.9-12.9 M-13.5,206.1L62.1,69.8 M20.7,144.4L94.1,12
		 M-211.9,567.7l3.6-7.1l75-137.6L9.4,164.8 M13.6,103.4l-41-22.6 M515.7,50.1l-26.8,48.1 M497.3,102.8l14.9-26.5 M556.1-22
		L543.8,0.3 M543.8,0.3l-28.1,49.8 M512.1,76.3l12.6-21 M318.3,3.2l8.7,4.8 M327,8.1l330.2,183.5 M-13.5,206.1L62.1,69.8
		 M20.7,144.4L94.1,12 M-211.9,567.7l3.6-7.1l75-137.6L9.4,164.8 M94.1,12l27.8-49.8 M318.3,3.2L180-73.6l-12.6-6.8 M524.7,55.3
		l46.2-85.9 M494.7,38.5l1-2.9l0.3-1.6l-5.8-127.6l-4.8-123.4l0.6-10.3 M-13.5,206.1L62.1,69.8 M20.7,144.4L94.1,12 M-211.9,567.7
		l3.6-7.1l75-137.6L9.4,164.8 M544.8,469.5l-55.2,100.2l-25.2,44.9l-30,55.6L381,766.4l-39.4,70.4l-17.4,32.6 M676.9,228.4
		l-14.9,29.4l-27.5,49.4l-30,54.3l-30,54 M420.1,923.4l140.9-255.6l24.9-44.6l27.5-50.4l30.4-54.3l27.5-49.8l32.3-58.2l79.5-144.1
		l25.8-46.2l30.7-55.6 M574.5,415.5l-29.7,54 M632.7,447.2l-33-17.4l-25.2-14.2"/>
	<path id="road_primary" class="st11" d="M335.7-28.7l-17.4,32 M327,8.1l4.2-6.5l7.1-12.6"/>
	<path id="building" class="st12" d="M266.3,63v7.4h-7.1V63H266.3z M331.2,246.5v1.9l5.5-0.6l0.6,4.2l1.3,3.6l1.6,3.6l2.3-1l2.9,4.2
		l6.1,4.8l-0.6,1.9l3.6,1.9l7.1,1.3v11.3l-8.1-1l-7.8-2.9l-4.5-2.9l-4.2-3.2l-3.9-4.5l-3.6-5.5l-2.3-5.5l-1-4.5l-0.6-5.2h2.3v-1.9
		H331.2z M-17.4,98.9l10.3,5.8l-0.3,0.6l0.6,0.3l0.6,1.6l-0.3,0.6l0.3,0.3l-5.8,10.7v0.3l-1.3,2.3l-0.3-0.3l-0.3,0.6h-0.3l-2.6,4.8
		l12.3,6.8l-0.3-0.6l1-1.9l1.6-0.3l5.5-10L2,119.9l-1.3-1l-1-1l-0.3-1.9l0.3-1.6l0.6-1.3l1.3-1.3l1.6-0.3h1.9l1.9,1l0.3,0.6l1,1.6
		v1.9l4.8,2.6l1.9-1h2.3l2.3,1.3l1,1.9l0.3,1.6l-0.6,1.9l-0.3,0.6l-1.3,1.3l-1,0.3h-2.3l-5.5,10.3l0.6,1l0.6,1.6l-0.3,1.9l-0.3,1
		l-1.3,1.6l-1.6,0.6H5.5l-1.9-1l-1.3-1.9L2,141.2v-1.3l-3.6-1.9l0.3,1.6l-0.3,1.3l-1,1l-1.6,0.3l-10-5.2l-1.3,2.6l1.6,0.6l1.3,1.3
		l0.6,1.6v1.9l-1,1.6l-1,1l-1.6,1h-1.6L-19,148l-1.3-1l-0.6-1.6l-0.3-2.3l-5.2-3.2l-1,1l-2.6,0.3h-1.3l-2.3-2.3l-1-1.3v-2.6l0.3-1.3
		l0.6-1l1-0.6l2.6-0.6l2.6,0.6l1,0.3l2.9-4.8l1.3,0.6l0.3-1l-1-0.6l-0.3,0.6l-0.6-0.3v0.3l-7.1-3.9L-17.4,98.9z M16.5,42.3l4.8,2.6
		l-2.6,4.2l-1-0.3l-1,1.6l1,0.6L16.2,54l-1.3,0.3l-0.6,1.6l0.3,1l-0.6,1l-1,0.6l-1.3,1.9l-3.2-1.9l1-1.9l-0.3-1l0.6-1.3l1-0.3l1-1.6
		l-0.3-1l1.6-2.9l1,0.3l1-1.6l-1-0.6L16.5,42.3z M33,14.6l3.6,1.9l-1.3,2.3v0.6L34.6,21l-1,0.3l-1.3,2.6l0.3,0.3l-1,1.9l-1-0.3
		l-1.3,2.3l1,0.6l-2.6,4.5L23,30.7l2.6-4.5l1,0.3l1.3-2.3l-1-0.6l1-1.9l0.6,0.3l1.6-2.9l-0.3-0.6l0.6-1.6l1.3-0.3L33,14.6z M12,39.8
		l4.5,2.6l-2.6,4.2l-0.6-0.3l-1,1.6l0.6,0.6l-1.6,2.9l-1,0.3l-0.6,1.6v1l-0.6,1.3l-0.6,0.3l-1.3,1.9l-3.6-1.9L4.9,54l-0.3-1l0.6-1.3
		l1-0.3l1-1.6l-0.3-1l1.6-2.9l1,0.3l1-1.6l-1-0.6L12,39.8z M31.1-15.2l12,6.8v1L33.3,10l-3.6-1.9l-0.6,1l-9-5.2l0.6-1.2V2.6
		l9.7-17.1L31.1-15.2z M5.2,65.9l2.3,1.3l-0.6,1.3l0.6,0.3l-1.6,2.9l0.3,1L5.5,74l-1,0.6l-1.9,2.9v1.3l-2.3,4.5l-4.8-2.6l2.6-4.5
		l1-0.6l1.6-3.2v-0.6l0.6-1.9h1l1.6-2.9l0.6,0.3L5.2,65.9z M0.4,33.3L12,39.8l-2.6,4.5l-3.2-1.6l-1.3,0.6l-0.3,1l1,0.6l-1.6,2.9
		l-1,0.3l-1-0.6l-0.6,1l4.2,2.6L3,55.9l-11.6-6.5l2.9-5.2l2.6,1.6l2.6-4.5l0.3,0.3l0.6-1v-1.3l-2.6-1.6L0.4,33.3z M0.4,63.3l2.3,1.3
		L2,65.9l0.6,0.3L1,69.2l0.3,0.6l-0.6,1.9l-1,0.3l-1.9,3.2l0.3,1l-2.6,4.5l-4.8-2.9l2.6-4.2l1-0.6l1.6-3.2v-1l1-1.6l0.6-0.3l1.6-2.6
		l0.6,0.3L0.4,63.3z M-0.6-2.6l3.9,2.3L2.3,1l11.6,6.1L11,12.3L-0.3,5.8l-0.6,1.3l-3.9-1.9L-0.6-2.6z M3.6-10.3l3.9,2.3l-1,1.3
		l11.6,6.5l-2.9,4.8L3.9-1.6L3.3-0.3l-3.9-2.3L3.6-10.3z M53.7-2.6l9.7,5.5l-2.6,4.5l-2.6-1.3l-1.3,2.3l-0.3,0.3l-2.9,5.2l2.6,1.3
		L54,19.4l-9.4-5.2l2.3-4.2l2.3,1.3l4.2-7.8L51.1,2L53.7-2.6z M32.7,51.4L55,63.7l-8.1,14.2l-7.8-4.5l0.3-1l0.6,0.6l1.3-2.3
		l-1.9-1.3l2.3-4.2l-4.5-2.6L33,70.1l-6.1-3.6l2.9-4.8l-1.9-1L32.7,51.4z M46.9,35.2L57.2,41l-0.3,0.6l1.9,1.3l1-1.9l5.5,3.2
		l-3.9,7.1l-0.6,0.3L43,42L46.9,35.2z M50.1,31l8.1,4.5l0.6-1l6.1,3.6l-0.6,1l2.9,1.6l-1.9,3.6l-7.8-4.5l0.6-1.6l-1-0.3l-0.6,1.3
		l-8.4-4.5L50.1,31z M53.4,25.5l8.1,4.5l-0.6,1.3l1,0.6l1-1.3l7.8,4.2l-1.9,3.6L66,36.8l-1,1.3l-6.1-3.6l0.6-1.3l-8.1-4.5L53.4,25.5
		z M56.6,21.3l16.5,9l-2.6,4.5L66,32.6l0.6-1.6l-4.5-2.6l0.3-0.3l-1-0.6v0.3l-1.9-1l0.3-0.6l-4.5-2.6L56.6,21.3z M57.9,17.5L66,22
		l0.6-1l6.5,3.6l-0.6,1l2.6,1.3l-1.9,3.6L55.9,21L57.9,17.5z M61.1,11.6l7.8,4.5l-0.6,1.6l1.3,0.6l0.6-1.6l7.8,4.5L76,25.2l-2.6-1.6
		l-0.3,1L66.6,21l0.6-1.3l-8.1-4.5L61.1,11.6z M46.9,22.3l3.6,1.9l-1.3,2.3l0.3,1l-0.6,1.3l-1,0.3L46.6,32l0.3,0.3l-1,1.9l-1-0.6
		l-1.3,2.6l1,0.6l-2.6,4.5l-4.8-2.6l5.2-9l0.6,0.3l1.3-2.9v-1l0.6-1.3l1-0.3L46.9,22.3z M23,44.3l1.6,1.6l3.9,1.9h1.3l1,1l0.3,0.6
		l-2.9,5.8l-1.6-1l-2.3,4.5l1,0.6L24,61.7l-2.3-1.3l-1,0.3l0.3,1l2.3,1.3l-2.3,4.2L11.7,62l2.3-3.9l1.6,1l0.3-0.6h0.3l4.5-7.4
		l-2.3-1.3l3.2-5.5H23z M42.7,19.7l3.2,1.9l-1.3,2.3l0.3,1l-0.6,1.3l-1,0.3l-1.6,2.9l0.6,0.3l-5.2,9l-4.5-2.9l2.3-4.5l1.3,0.6
		l1.3-2.6l-1-0.6l1-1.9l0.6,0.3l1.6-2.6l-0.3-1l0.6-1.3l1.3-0.3L42.7,19.7z M44.3-7.7l9.4,5.2L51.1,2l-2.3-1l-1.3,2.3l-0.6,0.3
		l-2.6,4.8l2.6,1.6l-2.3,4.2l-9.7-5.2l2.6-4.2l2.3,1.3L42.4,1L44-1.9l-2.3-1.3L44.3-7.7z M37.5,17.1l3.6,1.9l-1,2.3v1l-0.6,1.3
		l-1,0.3l-1.6,2.6l0.6,0.3l-1,1.9l-1-0.3L34.3,31l0.6,0.3l-2.3,4.5l-4.8-2.6l2.6-4.5l1,0.6l1.3-2.6l-1-0.6l1-1.9l0.6,0.3l1.6-2.6
		l-0.3-1l0.6-1.6h1.3L37.5,17.1z M64.3,3.6l17.1,9.4l0.6,0.6l-0.3,0.6l-3.9,7.1l-5.5-3.2l1-1.6l-1.9-1.3l-0.3,1l-1.3-0.6l-0.3,0.6
		l-1.3-1l0.3-0.6L60.8,10L64.3,3.6z M9.7,74.3l3.9,1.9l-0.3,1.3l16.2,8.7l0.3-1l1.3,0.6l1.9-3.2l8.1,4.5l-2.6,4.5l-1-0.6L34.9,96
		l1,0.6l-2.9,5.2l-5.8-3.6l0.6-1.6L23.3,94l-0.6,1.6l-6.1-3.2l0.3-0.6l-6.1-3.6l-0.3,0.6L3.6,85L9.7,74.3z M55.3,23.6l4.5,2.6
		l-1.3,2.3L54,25.9L55.3,23.6z M-4.8,5.2l3.9,1.9l-1,1.9v0.6l1,0.3l0.3-1l11,6.1l-3.6,6.5l-16.2-9L-4.8,5.2z M522.2,530.2l12.6,7.1
		V537l4.5,2.6l-0.3,0.6l12.3,6.8l-20.7,36.8l-12.3-6.1l-16.8-9.4l4.8-8.7l9.7,5.5l3.6-6.5l-1.9-1l4.5-7.8l1.6,1l3.6-6.5l-9.7-5.5
		L522.2,530.2z M551.9,546l6.1,3.2l-6.1,11l14.5,8.1l0.6-0.3l1.3,0.6l5.5-10.7l6.1,3.6l-12.9,23.6l-8.4,14.5l-6.8-3.9l7.8-13.9
		l-0.3-1.3l-12.9-7.1v0.3h-1l-7.8,13.9l-7.1-3.9L551.9,546z M495.3,580.3l19.1,10.3l-0.3,0.3l19.1,10.7l-7.8,14.5l-1.9-1.3l1.6-2.9
		l-10-5.5l-4.2,7.4l-10.7-5.8l1.9-3.6l-2.3-1.3l-1.9,3.6l-13.2-7.4L495.3,580.3z M484.7,599.3l6.8,3.9l-1,2.3l8.1,4.5l-2.9,4.8
		l-4.5-2.6l-0.6,1.3l-2.9-1.6l-1.3,2.6l9.4,5.2l-4.5,8.4l-3.6-1.9l0.3-0.3l-10-5.5l-0.3,0.3l-3.6-1.9l1.9-3.6l0.6,0.3l6.5-12
		l-0.3-0.3L484.7,599.3z M550.6,480.4l34.9,19.4l-5.2,9.7l-12-6.8l-1.6,3.2l14.9,8.4l-7.1,12.9l-15.2-8.4l-1.6,3.2l11.6,6.5
		l-5.2,9.7l-34.9-19.4l6.5-12L548,514l8.4-15.2l-12.3-6.8L550.6,480.4z M588.7,501.4l6.8,3.9l-2.6,5.2l-1-0.6h-1v1l-5.8,10.7
		l-4.5-2.6l5.8-10.7l1-0.3l-0.3-1l-1.3-0.3L588.7,501.4z M595.5,505.3l7.4,4.2l-2.9,4.8l-1-0.6h-1v1l-5.8,10.7l-4.5-2.6l5.8-10.7
		l0.6-0.3l-0.3-1l-1-0.3L595.5,505.3z M576.4,523.4l9.7,5.2l-2.9,4.8l-2.3-1.3l-3.9,6.8l2.3,1.3l-2.6,5.2l-9.4-5.5l2.6-4.8l2.6,1.3
		l3.9-6.8l-2.6-1.3L576.4,523.4z M602.9,509.5l7.1,3.9l-2.6,4.2l-1-0.6l-1,0.3l0.3,0.6l-6.5,11.3l-4.5-2.6l6.1-11.3h0.6v-1l-1.3-0.6
		L602.9,509.5z M595.5,533.8l9.7,5.5l-2.9,4.8l-2.3-1.6l-3.9,7.1l2.3,1.3l-2.6,5.2l-9.7-5.5l2.9-4.8l2.6,1.3l3.9-6.8l-2.6-1.6
		L595.5,533.8z M606.8,446.2l2.9,1.6l-1.6,3.2l-1.3-0.6l-2.6,4.5l7.8,4.2l4.2-7.4l14.2,8.1l-21,38.1l-23.6-13.2l8.1-13.9l-1.6-1
		l5.5-10l1,0.6L606.8,446.2z M578.1,430.4l7.8,4.2l-0.3,0.6l12.9,7.1l0.3-0.6l8.1,4.5l-8.1,14.2l-1-0.6l-5.5,10l1.6,1l-8.1,14.5
		l-8.7-4.8l0.3-1l-12-6.5l-0.6,0.6l-8.1-4.5l4.5-8.4l2.3,1.3l8.1-5.2l-0.3-0.6l3.9-7.1l1-0.3l-0.3-9l-2.3-1.3L578.1,430.4z
		 M553.2,27.5l7.1,4.2l-1.3,2.3l3.6,1.9l0.3-0.6l1.9,1.3l0.3,0.6l3.6,1.9l-2.9,5.5l-3.6-1.9l-1,0.3l-1.9-1.3l-5.5-3.2l-0.3,1
		l-5.5-2.9L553.2,27.5z M598.7,125.4l6.8,3.9l1-1.9l3.9,2.3l-1,1.9l8.4,4.5l-9.7,17.1l-18.7-10.7L598.7,125.4z M600,105.7l7.4,3.9
		l-4.8,8.7l2.3,1.3l4.8-8.7l7.1,4.2l-2.9,4.8l-1.6-1l-1,1.6l0.6,0.3l-2.6,4.8l-14.2-8.1l2.6-4.5l0.3,0.3l1-1.6l-1.9-1L600,105.7z
		 M571.3,111.2l11.3,6.1l-0.6,1.3l1.9,1l-0.3,0.3l1,0.6l1-1.9l11.3,6.5l-5.8,11l1.6,1l-3.2,5.5l-8.1-4.5l5.8-10.3v-1l0.6-1.6l-1.6-1
		l-0.6,1.6l-1,0.3l-5.8,10.7l-7.1-4.2l5.8-10.3l-0.3-1.3l0.6-1.3l-1.6-1l-1,1.6l-0.6,0.3l-5.8,10.7l-8.1-4.8l2.9-5.2l1.6,1
		L571.3,111.2z M583.5,96.3l7.4,4.2l-4.2,7.4l0.3,0.6l1.9,1l4.2-7.8l6.8,3.9l-2.9,5.2l-1-0.6l-3.6,6.1l-14.2-7.8l3.9-6.8l-1.6-0.6
		L583.5,96.3z M567.1,87.2l6.8,3.6l-4.2,7.4l1.9,1.3l0.6-0.3l3.9-7.1l7.4,4.2l-2.9,4.8l-1-0.6l-3.6,6.8l-14.2-8.1l3.6-6.5l-1.3-0.6
		L567.1,87.2z M578.1,27.8l6.1,3.6l-1.6,2.6v0.6l-0.3,1l-1,0.6l-2.3,3.9l1.9,1.3l2.6-4.5l-0.3-0.6l0.3-1l1-0.3l1.6-2.6l6.1,3.2
		l-2.9,5.2l-1-0.6l-5.5,9.7h0.3l-1.3,2.9l-6.1-3.2l1.6-2.6l1,0.6l1-1.6h-1l-1.6-0.6l-0.6-1l-1,1.6l1,0.6l-1.3,2.3l-5.8-3.2l1.6-3.2
		l0.3,0.3l5.5-9.4l-1-0.6L578.1,27.8z M550.3,77.9l7.4,3.9l-3.9,7.1l0.3,1l1.6,1l4.2-7.4l7.1,3.9l-2.9,4.8l-1.3-0.6l-3.6,6.5
		l-14.2-8.1l3.9-6.5l-1.3-0.6L550.3,77.9z M571.6,53l3.2,1.6l-3.6,6.1l0.3,1.3l-2.3,3.6L568,65l-0.6,1.3l1.3,1l-2.6,4.5l-4.8-2.9
		l2.6-4.5l1.3,0.6l0.6-1.3l-1.3-0.6l2.3-3.9h1l1.9-3.6l0.6-0.3L571.6,53z M566.7,50.4l2.6,1.6L568,54l0.3,1l-1.9,3.6l0.3,0.6
		l-2.3,3.9l-1-0.6l-0.6,1.3l1,0.6l-2.6,4.5l-4.5-2.6l2.6-4.5l1,0.6l0.6-1.3l-1-0.6l1.9-3.9l1-0.3L566.7,50.4z M506-11.9l24.2,13.2
		l-21,37.2l-2.3-0.3L504.7-11L506-11.9z M531.2,67.2l18.1,10l-6.5,11.6l-18.1-10L531.2,67.2z M548,36.5l3.2,1.6l-0.3,1l13.9,7.4
		l-2.9,5.2l-12-6.8l-1,1.3l6.5,3.6l-2.6,5.2l-3.2-1.6l-0.6,1.3l2.3,1.3l0.3-0.6l2.3,1.3l-1.3,2.3l0.6,0.3l1.3-2.3l3.6,1.9l-1,1.9
		l1,0.3l-2.6,5.2h-1.6l-1-1.3l-6.5-3.6h-1.3l-1-1.3l-4.8-2.6l-1.3-0.3l-1.3-1.3l0.6-1.3l1-1l0.3-0.6l0.3-1.6l1-1l0.6-1.3l0.3-1.6
		l1.3-0.6l0.6-1.6v-1l0.3-0.6l0.6-0.6h0.6l-0.3-0.6v-1l0.6-0.6l0.6-0.3l1-1.6v-1l1-1.3H548z M588.4-13.2l2.3,8.1l3.6,1.9l1.6-2.6
		l6.1,3.2L600.3,0l2.9,1.6L612-1l1.9,6.5l-5.5,1.6l-1.3,2.6l1.6,5.2l-6.8,1.9l-2.3-8.7l-2.9-1.6l-1.3,2.6l-6.1-3.2l1.3-2.6l-2.9-1.6
		l-8.4,2.6l-1.9-6.8l5.2-1.6l1.6-2.9l-1.3-4.5L588.4-13.2z M469.2,33l16.2,8.7l0.6,17.4l-1.9,3.6l-1.6-1l-8.1,14.5l-16.2-9l3.6-6.1
		l-6.1-3.2L469.2,33z M474-4.5l9.4,4.8l0.6,19.4l-16.5-9l1.9-2.9l4.2,2.3l0.6-0.3l0.3-0.6l-5.2-2.9l1.9-2.9l-0.6-0.3l1.6-2.9
		l6.5,3.6l0.6-1.3l-6.8-4.2L474-4.5z M460.1,27.8l9,5.2l-2.6,4.8l-2.3-1l-1,0.3v0.6l-2.6,4.5h-0.3v1l2.3,1.3l-2.6,4.8l-8.1-4.5
		l5.5-10.3l0.6,0.3l1-1.6l-1.6-1L460.1,27.8z M467.9-2.9l1.9,1.3l-7.8,13.9l-2.9-1.6l6.5-11.3l1,0.3L467.9-2.9z M455.9,26.8l3.6,1.9
		l-5.5,9.7l-1.6-1l-1,1.9l-1.9-1L455.9,26.8z M464.3-4.8l1.6,1l-1.3,2.6l1,0.6l-6.5,11.3l-2.6-1.6L464.3-4.8z M452.7,24.9l3.2,1.9
		l-6.5,11.6l-1.6-1l1-1.9l-1.6-1L452.7,24.9z M462.4-5.8l1.9,1l-7.8,13.9l-2.9-1.3l6.1-11.6l1.3,0.6L462.4-5.8z M449.5,23.3l3.2,1.6
		l-5.5,9.7l-1.3-1l-1.3,2.3l-1.6-1L449.5,23.3z M458.5-8.1l1.6,1l-1.3,2.6l1,0.6l-6.1,11.6l-2.9-1.6L458.5-8.1z M445.9,21.3l3.6,1.9
		L443,34.9l-1.6-1l1-2.3l-1.6-0.6L445.9,21.3z M456.9-9l1.6,1l-7.8,14.2l-2.6-1.6l6.1-11.3l1,0.3L456.9-9z M443,19.7l2.9,1.6
		l-5.8,10.3l-1-0.6l-1.3,2.3l-1.6-1L443,19.7z M450.1-6.8l3.2,1.6l-5.2,9.7l-3.6-1.9L450.1-6.8z M440.1,18.1l2.9,1.6l-6.8,12.6
		l-1.9-1l1.3-2.3l-1-0.6L440.1,18.1z M447.9,49.8l9.4,5.2l-5.8,10.7l-9.4-5.2L447.9,49.8z M446.9-8.7l3.2,1.9l-5.5,9.4L441.7,1
		L446.9-8.7z M437.2,16.5l2.9,1.6l-5.5,10.3l-1.3-0.3l-1.3,1.9l-1.6-1L437.2,16.5z M431.7-24.5l7.4,4.2l-1.9,3.6l1.3,0.6l-0.6,1.3
		l1.3,0.6l2.9-4.5l6.1,3.6l-5.5,10.3l1.6,1L441.1,2l-8.7-4.8l4.5-8.1l-2.9-1.6l-4.5,8.1L421-9l3.2-6.1l1.6,1L431.7-24.5z
		 M434.6,14.9l2.6,1.6l-6.8,12.6l-1.6-1l1.3-1.9l-1.3-0.6L434.6,14.9z M431,13.3l3.6,1.6l-5.5,9.7l-1.6-1l-1,2.3l-1.6-1L431,13.3z
		 M427.8,11.3l3.2,1.9l-6.1,11.6l-1.9-1l1.3-2.3l-1.6-0.6L427.8,11.3z M420.7,34.3l25.8,14.5l-3.2,5.8l1.6,0.6l-2.9,5.2l-7.4-4.2
		l2.9-5.5l-3.9-2.3l-0.6,1.3l1.3,0.6l-2.6,4.5l-8.4-4.8l2.3-4.2l1.3,0.6l1-1.9l-4.2-2.3l-3.2,6.1l-7.1-3.9l2.9-5.2l1.3,0.6
		L420.7,34.3z M424.6,9.7l3.2,1.6l-5.2,9.7l-1.3-0.6l-1,1.9l-1.9-1L424.6,9.7z M421,7.8l3.6,1.9l-6.1,11.6l-1.9-1.3l1-1.9l-1.6-1
		L421,7.8z M414.6,2.6l7.1,3.9l-2.6,5.2l-1-0.6l-6.5,11.3l-5.2-2.9l6.1-11.3L412,7.4L414.6,2.6z M401.3,23l17.4,9.4l-3.9,6.8l1,0.6
		l-1.3,2.3l-1-0.6l-1.3,2.6l-1.3-0.6l-0.6,0.3l-1-0.3l-0.3-0.3l-0.3-1l-1,0.3l-0.6-0.3l-0.6-0.6l-0.3-0.6l-1.6-1l1.3-2.6l-1.6-1
		l-1.3,2.6l-1.3-0.6H400l-0.6-0.6v-0.6h-1.6l-0.6-0.6l-0.3-0.6l-1.6-1l1.3-2.6l-1-0.6l1.3-2.3l1,0.3L401.3,23z M407.5-1.6l7.1,4.2
		L412,7.4l-1-0.3l-6.1,11.3l-5.8-2.9l6.5-11.6l-1-0.3L407.5-1.6z M387.4,15.2l5.2,2.9l-3.6,6.1l1.9,1.3l3.6-6.5l4.8,2.9l-3.2,6.1
		l1,0.6l-2.9,5.2l-13.9-7.8l2.9-5.2l0.6,0.3L387.4,15.2z M401.3-4.8l6.1,3.2l-2.6,4.8l-1-0.3l-0.6,1.3h0.3l-5.8,10.3l-4.8-2.9
		l5.5-10.3l0.3,0.3l0.6-1.3l-1-0.3L401.3-4.8z M367.1,5.5l17.1,9.7l-4.8,9l-17.4-9.7L367.1,5.5z M394.9-8.4l6.5,3.6L398.4,0l-1-0.6
		l-0.6,1.3h0.3L391.6,11l-5.2-2.9l5.5-10h0.6l0.6-1.3l-1-0.3L394.9-8.4z M388.7-11.9l6.1,3.6l-2.6,4.8l-1-0.6l-0.6,1.3h0.3
		l-5.8,10.3l-4.8-2.9l5.5-10l0.3,0.3l0.6-1.3l-1-0.6L388.7-11.9z M465,9.1l4.5,2.9l-0.3,0.6l2.9,1.6l0.3-1l5.2,2.9l-0.6,1l2.3,1.3
		l0.3-1l4.5,2.3l0.3,5.5l-0.3,0.6l-21.6-12L465,9.1z M360.3-28.1L379-17.4l-4.5,7.8l-5.2-2.9l-1.6,2.9l4.8,2.6L368.4,0l-12.3-6.8
		l-0.6,1.3l-6.8-3.9l4.8-8.7l1.6,1l-0.3,0.3l7.1,4.2v0.3l1,0.6l1.9-3.2l-1.3-0.6v0.3l-8.1-4.5L360.3-28.1z M474.7-29.4l5.8,3.2
		l1.3,0.3l0.6,0.3l0.6,1.3l-0.6,1.3l1,23.3l-8.1-4.2l1.3-2.3l-0.3-5.5l-2.6-1.6l-3.6,6.1l-4.8-2.6l5.2-10l2.9,1.6l0.3-1l1.6,0.6
		l1-1.3l-5.2-3.2L474.7-29.4z M550.9,184.5l8.4,1.6l-1,4.8l2.6,0.3l-1.3,6.5l-2.6-0.3l-1.3,6.1l-8.4-1.9l1.3-6.1l-2.6-0.6l1.6-6.5
		l2.3,0.6L550.9,184.5z M453.7,454.3l8.4,4.5l-4.5,8.1l-8.4-4.5L453.7,454.3z M474.7,416.2l8.4,4.8l-4.5,8.1l-8.4-4.5L474.7,416.2z
		 M97,170.6l1.3,4.2l-4.2,1.3l-1.3-4.2L97,170.6z M620.7,378l15.8,8.7l-3.2,5.5l12,6.8l-5.5,9.7l-16.2-9l2.9-5.2l-12-6.8l-16.2,28.8
		l-10.3-5.8l17.4-31.3l11,6.1L620.7,378z M583.9,532.1l9.7,5.5l-7.4,12.9l-9.4-5.2L583.9,532.1z M558.7,380l3.2,1.6l-1.9,3.9
		l-3.6-1.6L558.7,380z M30.7,68.8l16.2,9l-5.2,9.7l-16.2-9L30.7,68.8z M33.3,74.7l-1.6,2.9l5.2,2.6l1.3,0.3l1-1.9l-0.6-1L33.3,74.7z
		 M19.1,7.1l11.6,6.5l-1.9,3.2l1.3,0.6L23,30.7L8.8,23l2.6-4.5l1.6,1l1-1.9h-0.3L19.1,7.1z M21.1,15.8l-2.9,5.5l4.8,2.6l2.9-5.2
		L21.1,15.8z M30.7,68.8l16.2,9l-5.2,9.7l-16.2-9L30.7,68.8z M33.3,74.7l-1.6,2.9l5.2,2.6l1.3,0.3l1-1.9l-0.6-1L33.3,74.7z
		 M77.3-18.1l3.9,2.3L78.6-11l1.3,1l2.9-5.2l5.8,3.2l0.3-1L95-9.4l-2.6,4.8l-3.9-2.3l-1,1.6l3.9,1.9l-2.9,5.5L76-4.5v0.3h-1l-1.3-1
		l-1-0.6l0.3-0.6l-2.6-1.3l5.5-9.7L77.3-18.1z M83.7-10.3l-1.3,2.3l1.3,0.6l0.6-0.3l1-1.6L83.7-10.3z M559.6,17.8l16.5,9l0.3,1
		l-3.6,6.8l-2.9-1.3l1-1.3l-5.5-3.2l-0.6,1.3l-1-0.3l-1.6,2.9l-9-5.2l5.2-9.4l0.6-0.3H559.6z M561.6,25.9l-1.3,1.9l2.3,1.3l1.3-1.9
		L561.6,25.9z M349.3-8.7l6.5,3.6l-1,1.3L365.1,2l-1.6,2.6l0.6,0.3l-5.2,9.4l-17.1-9.4L349.3-8.7z M350.3,3.9l4.5,2.6l1-0.3l1.9-3.6
		l-0.3-1.3l-3.6-1.9h-1L350.3,3.9z M547.4,97.6l7.4,4.2l-1,1.9l1.9,1l1-1.6l11.6,6.5l-5.5,10l1,0.6l-3.2,6.1l-13.2-7.1l5.5-10
		l-2.9-1.6l-5.2,10l-7.8-4.2l2.9-5.5l2.6,1.6l0.6-1.3l-1.3-0.6L547.4,97.6z M555.4,114.1l3.2,1.9l-0.6,1l1.9,1l2.9-5.2l-0.6-1.3
		l-3.2-1.9h-1L555.4,114.1z M522.5,83.1l9.4,5.2l-0.3,0.6l1.9,1l-1,1.6l0.3,0.6l1.9,1l1-1.9l9,4.8l-6.1,11l1.3,0.6l-2.9,5.8
		l-7.1-4.2l4.2-7.4l0.3-1.3l0.3-1l-1.9-1.3l-0.6,1l-1,1l-4.2,7.4l-13.9-7.4L522.5,83.1z M525.4,91.1l-3.2,5.8l1.6,1l0.3-1l3.6,1.6
		l2.6-4.2l-0.6-1L525.4,91.1z"/>
	<text transform="matrix(0.4778 -0.8785 0.8785 0.4778 3.373 204.9387)" class="st13 st14">CENTRAL PARK OUTER LOOP</text>
	<text transform="matrix(0.4778 -0.8785 0.8785 0.4778 3.373 204.9387)" class="st15 st13 st14">CENTRAL PARK OUTER LOOP</text>
	<text transform="matrix(0.4778 -0.8785 0.8785 0.4778 3.373 204.9387)" class="st16 st13 st14">CENTRAL PARK OUTER LOOP</text>
	<text transform="matrix(0.8741 0.4858 -0.4858 0.8741 372.2634 38.6694)" class="st13 st14">CENTRAL PARK N</text>
	<text transform="matrix(0.8741 0.4858 -0.4858 0.8741 372.2634 38.6694)" class="st15 st13 st14">CENTRAL PARK N</text>
	<text transform="matrix(0.8741 0.4858 -0.4858 0.8741 372.2634 38.6694)" class="st16 st13 st14">CENTRAL PARK N</text>
	<text transform="matrix(0.8753 0.4835 -0.4835 0.8753 374.1647 -22.801)" class="st13 st14">W 111TH ST.</text>
	<text transform="matrix(0.8753 0.4835 -0.4835 0.8753 374.1647 -22.801)" class="st15 st13 st14">W 111TH ST.</text>
	<text transform="matrix(0.8753 0.4835 -0.4835 0.8753 374.1647 -22.801)" class="st16 st13 st14">W 111TH ST.</text>
	<text transform="matrix(0.875 0.4841 -0.4841 0.875 18.3678 -24.4919)" class="st13 st14">W 108TH ST.</text>
	<text transform="matrix(0.875 0.4841 -0.4841 0.875 18.3678 -24.4919)" class="st15 st13 st14">W 108TH ST.</text>
	<text transform="matrix(0.875 0.4841 -0.4841 0.875 18.3678 -24.4919)" class="st16 st13 st14">W 108TH ST.</text>
	<text transform="matrix(-4.680965e-02 0.9989 -0.9989 -4.680965e-02 379.3759 97.0923)" class="st13 st14">EAST DRIVE</text>
	<text transform="matrix(-4.680965e-02 0.9989 -0.9989 -4.680965e-02 379.3759 97.0923)" class="st15 st13 st14">EAST DRIVE</text>
	<text transform="matrix(-4.680965e-02 0.9989 -0.9989 -4.680965e-02 379.3759 97.0923)" class="st16 st13 st14">EAST DRIVE</text>
	<text transform="matrix(0.8716 0.4902 -0.4902 0.8716 217.7114 -38.321)" class="st13 st14">CENTRAL PARK OUTER LOOP</text>
	<text transform="matrix(0.8716 0.4902 -0.4902 0.8716 217.7114 -38.321)" class="st15 st13 st14">CENTRAL PARK OUTER LOOP</text>
	<text transform="matrix(0.8716 0.4902 -0.4902 0.8716 217.7114 -38.321)" class="st16 st13 st14">CENTRAL PARK OUTER LOOP</text>
	<text transform="matrix(0.1127 -0.9936 0.9936 0.1127 131.7736 81.8298)" class="st13 st14">WEST DRIVE</text>
	<text transform="matrix(0.1127 -0.9936 0.9936 0.1127 131.7736 81.8298)" class="st15 st13 st14">WEST DRIVE</text>
	<text transform="matrix(0.1127 -0.9936 0.9936 0.1127 131.7736 81.8298)" class="st16 st13 st14">WEST DRIVE</text>
	<text transform="matrix(0.9181 -0.3963 0.3963 0.9181 24.6936 449.6738)" class="st13 st14">WEST DRIVE</text>
	<text transform="matrix(0.9181 -0.3963 0.3963 0.9181 24.6936 449.6738)" class="st15 st13 st14">WEST DRIVE</text>
	<text transform="matrix(0.9181 -0.3963 0.3963 0.9181 24.6936 449.6738)" class="st16 st13 st14">WEST DRIVE</text>
	<text transform="matrix(0.9362 -0.3514 0.3514 0.9362 130.4852 338.1077)" class="st13 st14">WEST DRIVE</text>
	<text transform="matrix(0.9362 -0.3514 0.3514 0.9362 130.4852 338.1077)" class="st15 st13 st14">WEST DRIVE</text>
	<text transform="matrix(0.9362 -0.3514 0.3514 0.9362 130.4852 338.1077)" class="st16 st13 st14">WEST DRIVE</text>
	<text transform="matrix(0.853 -0.5219 0.5219 0.853 208.3072 385.3866)" class="st13 st14">NORTH WOODS</text>
	<text transform="matrix(0.853 -0.5219 0.5219 0.853 208.3072 385.3866)" class="st15 st13 st14">NORTH WOODS</text>
	<text transform="matrix(0.853 -0.5219 0.5219 0.853 208.3072 385.3866)" class="st16 st13 st14">NORTH WOODS</text>
	<text transform="matrix(0.628 -0.7782 0.7782 0.628 318.9711 245.0738)" class="st13 st14">EAST DRIVE</text>
	<text transform="matrix(0.628 -0.7782 0.7782 0.628 318.9711 245.0738)" class="st15 st13 st14">EAST DRIVE</text>
	<text transform="matrix(0.628 -0.7782 0.7782 0.628 318.9711 245.0738)" class="st16 st13 st14">EAST DRIVE</text>
	<text transform="matrix(0.6304 0.7763 -0.7763 0.6304 383.4512 553.7618)" class="st13 st14">E 102ND ST.</text>
	<text transform="matrix(0.6304 0.7763 -0.7763 0.6304 383.4512 553.7618)" class="st15 st13 st14">E 102ND ST.</text>
	<text transform="matrix(0.6304 0.7763 -0.7763 0.6304 383.4512 553.7618)" class="st16 st13 st14">E 102ND ST.</text>
	<text transform="matrix(-0.4827 0.8758 -0.8758 -0.4827 552.1817 430.3622)" class="st13 st14">CENTRAL PARK OUTER LOOP</text>
	<text transform="matrix(-0.4827 0.8758 -0.8758 -0.4827 552.1817 430.3622)" class="st15 st13 st14">CENTRAL PARK OUTER LOOP</text>
	<text transform="matrix(-0.4827 0.8758 -0.8758 -0.4827 552.1817 430.3622)" class="st16 st13 st14">CENTRAL PARK OUTER LOOP</text>
	<text transform="matrix(0.8846 -0.4664 0.4664 0.8846 176.0073 483.7225)" class="st13 st14">102ND ST. CUTOFF</text>
	<text transform="matrix(0.8846 -0.4664 0.4664 0.8846 176.0073 483.7225)" class="st15 st13 st14">102ND ST. CUTOFF</text>
	<text transform="matrix(0.8846 -0.4664 0.4664 0.8846 176.0073 483.7225)" class="st16 st13 st14">102ND ST. CUTOFF</text>
	<text transform="matrix(0.8838 0.4679 -0.4679 0.8838 595.2347 432.7154)" class="st13 st14">E 106TH ST.</text>
	<text transform="matrix(0.8838 0.4679 -0.4679 0.8838 595.2347 432.7154)" class="st15 st13 st14">E 106TH ST.</text>
	<text transform="matrix(0.8838 0.4679 -0.4679 0.8838 595.2347 432.7154)" class="st16 st13 st14">E 106TH ST.</text>
	<text transform="matrix(0.8736 0.4866 -0.4866 0.8736 565.4652 486.4177)" class="st13 st14">E 105TH ST.</text>
	<text transform="matrix(0.8736 0.4866 -0.4866 0.8736 565.4652 486.4177)" class="st15 st13 st14">E 105TH ST.</text>
	<text transform="matrix(0.8736 0.4866 -0.4866 0.8736 565.4652 486.4177)" class="st16 st13 st14">E 105TH ST.</text>
	<text transform="matrix(0.8736 0.4866 -0.4866 0.8736 509.7308 586.3041)" class="st13 st14">E 103RD ST.</text>
	<text transform="matrix(0.8736 0.4866 -0.4866 0.8736 509.7308 586.3041)" class="st15 st13 st14">E 103RD ST.</text>
	<text transform="matrix(0.8736 0.4866 -0.4866 0.8736 509.7308 586.3041)" class="st16 st13 st14">E 103RD ST.</text>
	<path class="st17" d="M-641.7,2052.5c0,1.4-0.3,2.7-0.8,3.9c-1.5,3.2-8.5,12.6-8.5,12.6s-7-9.4-8.5-12.6c-0.6-1.2-0.8-2.6-0.8-3.9
		c0-5.2,4.1-9.4,9.3-9.4c0,0,0,0,0,0C-645.8,2043.1-641.7,2047.3-641.7,2052.5C-641.7,2052.5-641.7,2052.5-641.7,2052.5z"/>
	<text transform="matrix(1 0 0 1 -834.4766 2106.5)" class="st13 st26">The Mall and Literary Walk, Northwest Edge  Feb 17-18</text>
	
		<text transform="matrix(1 0 0 1 -834.4766 2106.5)" class="st13 st26" style="fill:none;stroke:#F2F3F0;stroke-width:2;stroke-linecap:round;stroke-linejoin:round;">The Mall and Literary Walk, Northwest Edge  Feb 17-18</text>
	<text transform="matrix(1 0 0 1 -834.4766 2106.5)" class="st20 st13 st26">The Mall and Literary Walk, Northwest Edge  Feb 17-18</text>
	<path class="st17" d="M-612.7,2106.5c0,1.4-0.3,2.7-0.8,3.9c-1.5,3.2-8.5,12.6-8.5,12.6s-7-9.4-8.5-12.6c-0.6-1.2-0.8-2.6-0.8-3.9
		c0-5.2,4.1-9.4,9.3-9.4c0,0,0,0,0,0C-616.8,2097.1-612.7,2101.3-612.7,2106.5C-612.7,2106.5-612.7,2106.5-612.7,2106.5z"/>
	<text transform="matrix(1 0 0 1 -770.6294 2156.5)" class="st13 st26">North of the Naumburg Bandshell Feb. 15-17</text>
	
		<text transform="matrix(1 0 0 1 -770.6294 2156.5)" class="st13 st26" style="fill:none;stroke:#F2F3F0;stroke-width:2;stroke-linecap:round;stroke-linejoin:round;">North of the Naumburg Bandshell Feb. 15-17</text>
	<text transform="matrix(1 0 0 1 -770.6294 2156.5)" class="st20 st13 st26">North of the Naumburg Bandshell Feb. 15-17</text>
	<path class="st17" d="M-567.7,2125.5c0,1.4-0.3,2.7-0.8,3.9c-1.5,3.2-8.5,12.6-8.5,12.6s-7-9.4-8.5-12.6c-0.6-1.2-0.8-2.6-0.8-3.9
		c0-5.2,4.1-9.4,9.3-9.4c0,0,0,0,0,0C-571.8,2116.1-567.7,2120.3-567.7,2125.5C-567.7,2125.5-567.7,2125.5-567.7,2125.5z"/>
	<text transform="matrix(1 0 0 1 -675.8125 2175.5)" class="st13 st26">Rumsey Playfield Feb. 15-17</text>
	
		<text transform="matrix(1 0 0 1 -675.8125 2175.5)" class="st13 st26" style="fill:none;stroke:#F2F3F0;stroke-width:2;stroke-linecap:round;stroke-linejoin:round;">Rumsey Playfield Feb. 15-17</text>
	<text transform="matrix(1 0 0 1 -675.8125 2175.5)" class="st20 st13 st26">Rumsey Playfield Feb. 15-17</text>
	<path class="st17" d="M-537.7,1704.5c0,1.4-0.3,2.7-0.8,3.9c-1.5,3.2-8.5,12.6-8.5,12.6s-7-9.4-8.5-12.6c-0.6-1.2-0.8-2.6-0.8-3.9
		c0-5.2,4.1-9.4,9.3-9.4c0,0,0,0,0,0C-541.8,1695.1-537.7,1699.3-537.7,1704.5C-537.7,1704.5-537.7,1704.5-537.7,1704.5z"/>
	<text transform="matrix(1 0 0 1 -720.9302 1754.5)" class="st13 st26">The Ramble, between the Point and Pine Hill  Feb. 15</text>
	
		<text transform="matrix(1 0 0 1 -720.9302 1754.5)" class="st13 st26" style="fill:none;stroke:#F2F3F0;stroke-width:2;stroke-linecap:round;stroke-linejoin:round;">The Ramble, between the Point and Pine Hill  Feb. 15</text>
	<text transform="matrix(1 0 0 1 -720.9302 1754.5)" class="st20 st13 st26">The Ramble, between the Point and Pine Hill  Feb. 15</text>
	<path class="st17" d="M-494.7,1939.5c0,1.4-0.3,2.7-0.8,3.9c-1.5,3.2-8.5,12.6-8.5,12.6s-7-9.4-8.5-12.6c-0.6-1.2-0.8-2.6-0.8-3.9
		c0-5.2,4.1-9.4,9.3-9.4c0,0,0,0,0,0C-498.8,1930.1-494.7,1934.3-494.7,1939.5C-494.7,1939.5-494.7,1939.5-494.7,1939.5z"/>
	<text transform="matrix(1 0 0 1 -615.6924 1989.5)" class="st13 st26">South of Loeb Boathouse Feb 14</text>
	
		<text transform="matrix(1 0 0 1 -615.6924 1989.5)" class="st13 st26" style="fill:none;stroke:#F2F3F0;stroke-width:2;stroke-linecap:round;stroke-linejoin:round;">South of Loeb Boathouse Feb 14</text>
	<text transform="matrix(1 0 0 1 -615.6924 1989.5)" class="st20 st13 st26">South of Loeb Boathouse Feb 14</text>
	<path class="st17" d="M-524.7,1956.5c0,1.4-0.3,2.7-0.8,3.9c-1.5,3.2-8.5,12.6-8.5,12.6s-7-9.4-8.5-12.6c-0.6-1.2-0.8-2.6-0.8-3.9
		c0-5.2,4.1-9.4,9.3-9.4c0,0,0,0,0,0C-528.8,1947.1-524.7,1951.3-524.7,1956.5C-524.7,1956.5-524.7,1956.5-524.7,1956.5z"/>
	<text transform="matrix(1 0 0 1 -663.4341 2006.5)" class="st13 st26">Northeast of Bethesda Terrace  Feb. 14</text>
	
		<text transform="matrix(1 0 0 1 -663.4341 2006.5)" class="st13 st26" style="fill:none;stroke:#F2F3F0;stroke-width:2;stroke-linecap:round;stroke-linejoin:round;">Northeast of Bethesda Terrace  Feb. 14</text>
	<text transform="matrix(1 0 0 1 -663.4341 2006.5)" class="st20 st13 st26">Northeast of Bethesda Terrace  Feb. 14</text>
	<path class="st17" d="M-820.7,2117.5c0,1.4-0.3,2.7-0.8,3.9c-1.5,3.2-8.5,12.6-8.5,12.6s-7-9.4-8.5-12.6c-0.6-1.2-0.8-2.6-0.8-3.9
		c0-5.2,4.1-9.4,9.3-9.4c0,0,0,0,0,0C-824.8,2108.1-820.7,2112.3-820.7,2117.5C-820.7,2117.5-820.7,2117.5-820.7,2117.5z"/>
	<text transform="matrix(1 0 0 1 -932.3262 2167.5)" class="st13 st26">North Sheep Meadow Feb. 14</text>
	
		<text transform="matrix(1 0 0 1 -932.3262 2167.5)" class="st13 st26" style="fill:none;stroke:#F2F3F0;stroke-width:2;stroke-linecap:round;stroke-linejoin:round;">North Sheep Meadow Feb. 14</text>
	<text transform="matrix(1 0 0 1 -932.3262 2167.5)" class="st20 st13 st26">North Sheep Meadow Feb. 14</text>
	<path class="st17" d="M-989.7,2452.5c0,1.4-0.3,2.7-0.8,3.9c-1.5,3.2-8.5,12.6-8.5,12.6s-7-9.4-8.5-12.6c-0.6-1.2-0.8-2.6-0.8-3.9
		c0-5.2,4.1-9.4,9.3-9.4c0,0,0,0,0,0C-993.8,2443.1-989.7,2447.3-989.7,2452.5C-989.7,2452.5-989.7,2452.5-989.7,2452.5z"/>
	<path class="st17" d="M-856.7,2597.5c0,1.4-0.3,2.7-0.8,3.9c-1.5,3.2-8.5,12.6-8.5,12.6s-7-9.4-8.5-12.6c-0.6-1.2-0.8-2.6-0.8-3.9
		c0-5.2,4.1-9.4,9.3-9.4c0,0,0,0,0,0C-860.8,2588.1-856.7,2592.3-856.7,2597.5C-856.7,2597.5-856.7,2597.5-856.7,2597.5z"/>
	<text transform="matrix(1 0 0 1 -989.334 2647.5)" class="st13 st26">Hallett Nature Sanctuary Feb 3-5, 8-9</text>
	
		<text transform="matrix(1 0 0 1 -989.334 2647.5)" class="st13 st26" style="fill:none;stroke:#F2F3F0;stroke-width:2;stroke-linecap:round;stroke-linejoin:round;">Hallett Nature Sanctuary Feb 3-5, 8-9</text>
	<text transform="matrix(1 0 0 1 -989.334 2647.5)" class="st20 st13 st26">Hallett Nature Sanctuary Feb 3-5, 8-9</text>
	<path class="st17" d="M-720.7,2488.5c0,1.4-0.3,2.7-0.8,3.9c-1.5,3.2-8.5,12.6-8.5,12.6s-7-9.4-8.5-12.6c-0.6-1.2-0.8-2.6-0.8-3.9
		c0-5.2,4.1-9.4,9.3-9.4c0,0,0,0,0,0C-724.8,2479.1-720.7,2483.3-720.7,2488.5C-720.7,2488.5-720.7,2488.5-720.7,2488.5z"/>
	<text transform="matrix(1 0 0 1 -860.9766 2538.5)" class="st13 st26">West of or in Central Park Zoo Feb. 2-8</text>
	
		<text transform="matrix(1 0 0 1 -860.9766 2538.5)" class="st13 st26" style="fill:none;stroke:#F2F3F0;stroke-width:2;stroke-linecap:round;stroke-linejoin:round;">West of or in Central Park Zoo Feb. 2-8</text>
	<text transform="matrix(1 0 0 1 -860.9766 2538.5)" class="st20 st13 st26">West of or in Central Park Zoo Feb. 2-8</text>
	<path class="st17" d="M-664.7,2507.5c0,1.4-0.3,2.7-0.8,3.9c-1.5,3.2-8.5,12.6-8.5,12.6s-7-9.4-8.5-12.6c-0.6-1.2-0.8-2.6-0.8-3.9
		c0-5.2,4.1-9.4,9.3-9.4c0,0,0,0,0,0C-668.8,2498.1-664.7,2502.3-664.7,2507.5C-664.7,2507.5-664.7,2507.5-664.7,2507.5z"/>
	<text transform="matrix(1 0 0 1 -801.6133 2557.5)" class="st13 st26">Central Park Zoo Feb 2., Escape Date</text>
	
		<text transform="matrix(1 0 0 1 -801.6133 2557.5)" class="st13 st26" style="fill:none;stroke:#F2F3F0;stroke-width:2;stroke-linecap:round;stroke-linejoin:round;">Central Park Zoo Feb 2., Escape Date</text>
	<text transform="matrix(1 0 0 1 -801.6133 2557.5)" class="st20 st13 st26">Central Park Zoo Feb 2., Escape Date</text>
	<rect x="10" y="575" class="st18" width="71.5" height="14"/>
	<path class="st19" d="M10,590h71.5"/>
	<text transform="matrix(1 0 0 1 15 586)" class="st20 st13 st14">100 m</text>
	<rect x="91.5" y="563.2" class="st1" width="8.6" height="28.8"/>
	<path class="st21" d="M95.8,580.2L95.8,580.2L99,592l-3.2-2l-3.2,2C92.6,592,95.8,580.2,95.8,580.2z"/>
	<text transform="matrix(1 0 0 1 91.4951 575.0031)" class="st13 st22">N</text>
	<rect x="443" y="586" class="st23" width="157" height="14"/>
	<text transform="matrix(1 0 0 1 447 598)" class="st13 st24"></text>
	<text transform="matrix(1 0 0 1 457.8394 598)" class="st13 st24">OpenStreetMap</text>
	<text transform="matrix(1 0 0 1 538.229 598)" class="st13 st24">contributors</text>
	<text transform="matrix(1 0 0 1 0 631)" class="st25 st13 st24">Created with</text>
	<text transform="matrix(1 0 0 1 64.4858 631)" class="st25 st13 st24">Datawrapper</text>
</g>
<g id="interactions:svg">
	<text id="compost-early-july-text" transform="matrix(1 0 0 1 298.261 394.992)" class="st13 st26">Compost Heap  Early July</text>
	<path id="compost-early-july-tag" class="st17" d="M383.3,367.5c0,1.4-0.3,2.7-0.8,3.9C381,374.6,374,384,374,384s-7-9.4-8.5-12.6
		c-0.6-1.2-0.8-2.6-0.8-3.9c0-5.2,4.1-9.4,9.3-9.4c0,0,0,0,0,0C379.2,358.1,383.3,362.3,383.3,367.5
		C383.3,367.5,383.3,367.5,383.3,367.5z"/>
	
		<text id="compost-june-text_00000123428051491345177690000000549490286330071207_" transform="matrix(1 0 0 1 307.1456 418.9005)" class="st13 st26">Compost Heap June</text>
	<path id="compost-june-tag" class="st17" d="M377.8,377.7c0,1.4-0.3,2.7-0.8,3.9c-1.5,3.2-8.4,12.6-8.4,12.6s-7-9.4-8.5-12.6
		c-0.6-1.2-0.8-2.6-0.8-3.9c0-5.2,4.1-9.4,9.3-9.4c0,0,0,0,0,0C373.7,368.3,377.9,372.5,377.8,377.7
		C377.8,377.7,377.8,377.7,377.8,377.7z"/>
	<text id="compost-late-may-text" transform="matrix(1 0 0 1 289.2135 410.3386)" class="st13 st26">Compost Heap Late May</text>
	<path id="compost-late-may-tag" class="st17" d="M393.3,368.7c0,1.4-0.3,2.7-0.8,3.9c-1.5,3.2-8.5,12.6-8.5,12.6s-7-9.4-8.5-12.6
		c-0.6-1.2-0.8-2.6-0.8-3.9c0-5.2,4.1-9.4,9.3-9.4c0,0,0,0,0,0C389.2,359.3,393.4,363.6,393.3,368.7
		C393.3,368.7,393.3,368.7,393.3,368.7z"/>
	<text id="north-woods-may-text" transform="matrix(1 0 0 1 191.1646 277.5)" class="st13 st26">North Woods  May</text>
	<path id="north-woods-may-tag" class="st17" d="M265.3,227.5c0,1.4-0.3,2.7-0.8,3.9C263,234.6,256,244,256,244s-7-9.4-8.4-12.6
		c-0.6-1.2-0.8-2.6-0.8-3.9c0-5.2,4.1-9.4,9.3-9.4c0,0,0,0,0,0C261.2,218.1,265.3,222.3,265.3,227.5
		C265.3,227.5,265.3,227.5,265.3,227.5z"/>
	<text id="west-of-huddlestone-arch-may-text" transform="matrix(1 0 0 1 170.0269 308.5)" class="st13 st26">West of Huddlestone Arch May</text>
	<path id="west-of-huddlestone-arch-may-tag" class="st17" d="M282.3,258.5c0,1.4-0.3,2.7-0.8,3.9C280,265.6,273,275,273,275
		s-7-9.4-8.5-12.6c-0.6-1.2-0.8-2.6-0.8-3.9c0-5.2,4.1-9.4,9.3-9.4c0,0,0,0,0,0C278.2,249.1,282.3,253.3,282.3,258.5
		C282.3,258.5,282.3,258.5,282.3,258.5z"/>
	<text id="huddlestone-arch-april-text" transform="matrix(1 0 0 1 180.2349 297.5)" class="st13 st26">Huddlestone Arch April</text>
	<path id="huddlestone-arch-april-tag" class="st17" d="M273.3,256.5c0,1.4-0.3,2.7-0.8,3.9C271,263.6,264,273,264,273
		s-7-9.4-8.4-12.6c-0.6-1.2-0.8-2.6-0.8-3.9c0-5.2,4.1-9.4,9.3-9.4c0,0,0,0,0,0C269.2,247.1,273.3,251.3,273.3,256.5
		C273.3,256.5,273.3,256.5,273.3,256.5z"/>
	<text id="north-woods-march-text" transform="matrix(1 0 0 1 232.9975 281.912)" class="st13 st26">North Woods  March</text>
	<path id="north-woods-march-tag" class="st17" d="M257.3,237.5c0,1.4-0.3,2.7-0.8,3.9C255,244.6,248,254,248,254s-7-9.4-8.4-12.6
		c-0.6-1.2-0.8-2.6-0.8-3.9c0-5.2,4.1-9.4,9.3-9.4c0,0,0,0,0,0C253.2,228.1,257.3,232.3,257.3,237.5
		C257.3,237.5,257.3,237.5,257.3,237.5z"/>
	<text id="north-woods-feb-20-28-text" transform="matrix(1 0 0 1 203.2737 289.5039)" class="st13 st26">North Woods  Feb. 20-28</text>
	<path id="north-woods-feb-tag" class="st17" d="M282.3,242.5c0,1.4-0.3,2.7-0.8,3.9C280,249.6,273,259,273,259s-7-9.4-8.5-12.6
		c-0.6-1.2-0.8-2.6-0.8-3.9c0-5.2,4.1-9.4,9.3-9.4c0,0,0,0,0,0C278.2,233.1,282.3,237.3,282.3,242.5
		C282.3,242.5,282.3,242.5,282.3,242.5z"/>
</g>
</svg>
