<?xml version="1.0" encoding="utf-8"?>
<!-- Generator: Adobe Illustrator 27.7.0, SVG Export Plug-In . SVG Version: 6.00 Build 0)  -->
<svg version="1.2" baseProfile="tiny" id="g-flaco-north-park-Artboard_1-interactions-img" xmlns="http://www.w3.org/2000/svg" xmlns:xlink="http://www.w3.org/1999/xlink"
	 x="0px" y="0px" viewBox="0 0 600 633" overflow="visible" xml:space="preserve">
<g>
	<path id="compost-early-july-tag_00000037684979270094791820000010869441724883053716_" fill="#009076" d="M383.282,367.453
		c0.004,1.353-0.28,2.691-0.832,3.926c-1.456,3.25-8.45,12.636-8.45,12.636s-6.968-9.386-8.45-12.636
		c-0.552-1.235-0.836-2.573-0.832-3.926c-0.043-5.169,4.112-9.395,9.281-9.438c0,0,0,0,0.001,0
		C379.169,358.058,383.325,362.283,383.282,367.453C383.282,367.453,383.282,367.453,383.282,367.453z"/>
	<path id="compost-june-tag_00000052816018553524910460000007687559025688248730_" fill="#009076" d="M377.814,377.698
		c0.004,1.353-0.279,2.691-0.832,3.926c-1.456,3.25-8.45,12.636-8.45,12.636s-6.968-9.386-8.45-12.636
		c-0.553-1.235-0.836-2.573-0.832-3.926c-0.043-5.169,4.112-9.395,9.281-9.438c0,0,0,0,0.001,0
		C373.701,368.303,377.857,372.529,377.814,377.698C377.814,377.698,377.814,377.698,377.814,377.698z"/>
	<path id="compost-late-may-tag_00000141439194925343451640000009705907030110550715_" fill="#009076" d="M393.328,368.745
		c0.004,1.353-0.28,2.691-0.832,3.926c-1.456,3.25-8.45,12.636-8.45,12.636s-6.968-9.386-8.45-12.636
		c-0.552-1.235-0.836-2.573-0.832-3.926c-0.043-5.169,4.112-9.395,9.281-9.438c0,0,0,0,0.001,0
		C389.215,359.35,393.371,363.575,393.328,368.745C393.328,368.745,393.328,368.745,393.328,368.745z"/>
	<path id="north-woods-may-tag_00000151541925585391357780000013662939631859247783_" fill="#009076" d="M265.282,227.453
		c0.004,1.353-0.28,2.691-0.832,3.926c-1.456,3.25-8.45,12.636-8.45,12.636s-6.968-9.386-8.45-12.636
		c-0.553-1.235-0.836-2.573-0.832-3.926c-0.043-5.169,4.112-9.395,9.281-9.438c0,0,0,0,0.001,0
		C261.169,218.058,265.325,222.283,265.282,227.453C265.282,227.453,265.282,227.453,265.282,227.453z"/>
	<path id="west-of-huddlestone-arch-may-tag_00000035497982226098461660000010269804055721639052_" fill="#009076" d="
		M282.282,258.453c0.004,1.353-0.28,2.691-0.832,3.926c-1.456,3.25-8.45,12.636-8.45,12.636s-6.968-9.386-8.45-12.636
		c-0.552-1.235-0.836-2.573-0.832-3.926c-0.043-5.169,4.112-9.395,9.281-9.438c0,0,0,0,0.001,0
		C278.169,249.058,282.325,253.283,282.282,258.453C282.282,258.453,282.282,258.453,282.282,258.453z"/>
	<path id="huddlestone-arch-april-tag_00000043454931756930349730000008609413542197327519_" fill="#009076" d="M273.282,256.453
		c0.004,1.353-0.28,2.691-0.832,3.926c-1.456,3.25-8.45,12.636-8.45,12.636s-6.968-9.386-8.45-12.636
		c-0.553-1.235-0.836-2.573-0.832-3.926c-0.043-5.169,4.112-9.395,9.281-9.438c0,0,0,0,0.001,0
		C269.169,247.058,273.325,251.283,273.282,256.453C273.282,256.453,273.282,256.453,273.282,256.453z"/>
	<path id="north-woods-march-tag_00000183928228470666275720000002383919920463254461_" fill="#009076" d="M257.282,237.453
		c0.004,1.353-0.28,2.691-0.832,3.926c-1.456,3.25-8.45,12.636-8.45,12.636s-6.968-9.386-8.45-12.636
		c-0.553-1.235-0.836-2.573-0.832-3.926c-0.043-5.169,4.112-9.395,9.281-9.438c0,0,0,0,0.001,0
		C253.169,228.058,257.325,232.283,257.282,237.453C257.282,237.453,257.282,237.453,257.282,237.453z"/>
	<path id="north-woods-feb-tag_00000014605008449387183390000001376224953999291323_" fill="#009076" d="M282.282,242.453
		c0.004,1.353-0.28,2.691-0.832,3.926c-1.456,3.25-8.45,12.636-8.45,12.636s-6.968-9.386-8.45-12.636
		c-0.552-1.235-0.836-2.573-0.832-3.926c-0.043-5.169,4.112-9.395,9.281-9.438c0,0,0,0,0.001,0
		C278.169,233.058,282.325,237.283,282.282,242.453C282.282,242.453,282.282,242.453,282.282,242.453z"/>
</g>
<style>
#g-flaco-north-park-Artboard_1-interactions-img rect, #g-flaco-north-park-Artboard_1-interactions-img circle, #g-flaco-north-park-Artboard_1-interactions-img path, #g-flaco-north-park-Artboard_1-interactions-img line, #g-flaco-north-park-Artboard_1-interactions-img polyline, #g-flaco-north-park-Artboard_1-interactions-img polygon { vector-effect: non-scaling-stroke; }
</style>
</svg>

